<?xml version="1.0" encoding="UTF-8" standalone="no"?>
<!-- Created with Inkscape (http://www.inkscape.org/) -->

<svg
   xmlns:dc="http://purl.org/dc/elements/1.1/"
   xmlns:cc="http://creativecommons.org/ns#"
   xmlns:rdf="http://www.w3.org/1999/02/22-rdf-syntax-ns#"
   xmlns:svg="http://www.w3.org/2000/svg"
   xmlns="http://www.w3.org/2000/svg"
   xmlns:sodipodi="http://sodipodi.sourceforge.net/DTD/sodipodi-0.dtd"
   xmlns:inkscape="http://www.inkscape.org/namespaces/inkscape"
   width="408"
   height="48"
   id="svg2"
   version="1.1"
   inkscape:version="0.48.3.1 r9886"
   sodipodi:docname="jsoneditor-icons.svg"
   inkscape:export-filename="/home/jos/jsoneditoronline/img/svg/duplicate.png"
   inkscape:export-xdpi="90"
   inkscape:export-ydpi="90">
  <defs
     id="defs4" />
  <sodipodi:namedview
     id="base"
     pagecolor="#ffffff"
     bordercolor="#666666"
     borderopacity="1.0"
     inkscape:pageopacity="0.0"
     inkscape:pageshadow="2"
     inkscape:zoom="2.0064148"
     inkscape:cx="113.57122"
     inkscape:cy="23.319345"
     inkscape:document-units="px"
     inkscape:current-layer="layer1"
     showgrid="false"
     inkscape:snap-grids="true"
     inkscape:window-width="1600"
     inkscape:window-height="849"
     inkscape:window-x="0"
     inkscape:window-y="0"
     inkscape:window-maximized="1"
     showguides="true"
     inkscape:guide-bbox="true" />
  <metadata
     id="metadata7">
    <rdf:RDF>
      <cc:Work
         rdf:about="">
        <dc:format>image/svg+xml</dc:format>
        <dc:type
           rdf:resource="http://purl.org/dc/dcmitype/StillImage" />
        <dc:title />
      </cc:Work>
    </rdf:RDF>
  </metadata>
  <g
     inkscape:label="Layer 1"
     inkscape:groupmode="layer"
     id="layer1"
     transform="translate(0,-1004.3622)">
    <rect
       style="fill:#d3d3d3;fill-opacity:1;stroke:none"
       id="rect3754"
       width="16"
       height="16"
       x="4"
       y="1032.3622" />
    <path
       style="fill:#ffffff;fill-opacity:1;stroke:none"
       d="m 11.03125,1035.7997 0,3.375 -3.4375001,0 0,2.25 3.4062501,0 0,3.3437 2.21875,0 0,-3.3125 3.40625,0 0,-2.3125 -3.34375,0 0,-3.375 z"
       id="path4368"
       inkscape:connector-curvature="0" />
    <rect
       style="fill:#109618;fill-opacity:1;stroke:none"
       id="rect3754-7"
       width="16"
       height="16"
       x="4"
       y="1008.3622" />
    <path
       style="fill:#ffffff;fill-opacity:1;stroke:none"
       d="m 11.03125,1011.7997 0,3.375 -3.4375,0 0,2.25 3.40625,0 0,3.3438 2.21875,0 0,-3.3125 3.40625,0 0,-2.3125 -3.34375,0 0,-3.375 z"
       id="path4368-1"
       inkscape:connector-curvature="0" />
    <rect
       style="fill:#ff0000;fill-opacity:1;stroke:none"
       id="rect3754-9"
       width="16"
       height="16"
       x="28"
       y="1008.3622" />
    <path
       style="fill:#ffffff;fill-opacity:1;stroke:none"
       d="m 38.506909,1012.3462 -2.386486,2.3865 -2.430679,-2.4307 -1.59099,1.591 2.408582,2.4086 -2.364388,2.3644 1.568893,1.5689 2.342291,-2.3423 2.408583,2.4086 1.635184,-1.6352 -2.364388,-2.3644 2.386485,-2.3865 z"
       id="path4368-9"
       inkscape:connector-curvature="0" />
    <rect
       style="fill:#d3d3d3;fill-opacity:1;stroke:none"
       id="rect3754-6"
       width="16"
       height="16"
       x="28"
       y="1032.3622" />
    <path
       style="fill:#ffffff;fill-opacity:1;stroke:none"
       d="m 38.506909,1036.3462 -2.386486,2.3865 -2.430679,-2.4307 -1.59099,1.591 2.408582,2.4086 -2.364388,2.3644 1.568893,1.5689 2.342291,-2.3423 2.408583,2.4086 1.635184,-1.6352 -2.364388,-2.3644 2.386485,-2.3865 z"
       id="path4368-7"
       inkscape:connector-curvature="0" />
    <rect
       style="fill:#97b0f8;fill-opacity:1;stroke:none"
       id="rect3754-3"
       width="16"
       height="16"
       x="52"
       y="1008.3622" />
    <rect
       style="fill:#ffffff;fill-opacity:1;stroke:#97b0f8;stroke-width:0.91546917;stroke-linejoin:miter;stroke-miterlimit:4;stroke-opacity:1;stroke-dasharray:none"
       id="rect3776-1"
       width="8.0845308"
       height="8.0845308"
       x="54.457733"
       y="1010.8199" />
    <rect
       style="fill:#ffffff;fill-opacity:1;stroke:#97b0f8;stroke-width:0.90154964;stroke-linejoin:miter;stroke-miterlimit:4;stroke-opacity:1;stroke-dasharray:none"
       id="rect3776-1-6"
       width="8.0984497"
       height="8.0984507"
       x="57.459774"
       y="1013.8041" />
    <rect
       style="fill:#d3d3d3;fill-opacity:1;stroke:none"
       id="rect3754-2"
       width="16"
       height="16"
       x="52"
       y="1032.3622" />
    <rect
       style="fill:#ffffff;fill-opacity:1;stroke:#d3d3d3;stroke-width:0.91546917;stroke-linejoin:miter;stroke-miterlimit:4;stroke-opacity:1;stroke-dasharray:none"
       id="rect3776-1-0"
       width="8.0845308"
       height="8.0845308"
       x="54.457733"
       y="1034.8198" />
    <rect
       style="fill:#ffffff;fill-opacity:1;stroke:#d3d3d3;stroke-width:0.90154964;stroke-linejoin:miter;stroke-miterlimit:4;stroke-opacity:1;stroke-dasharray:none"
       id="rect3776-1-6-4"
       width="8.0984497"
       height="8.0984507"
       x="57.459774"
       y="1037.804" />
    <rect
       style="fill:#97b0f8;fill-opacity:1;stroke:none"
       id="rect3754-4"
       width="16"
       height="16"
       x="76"
       y="1008.3622" />
    <path
       style="fill:#ffffff;fill-opacity:1;stroke:#ffffff;stroke-width:0.2;stroke-linecap:butt;stroke-linejoin:miter;stroke-miterlimit:4;stroke-opacity:1;stroke-dasharray:none"
       d="m 85.104474,1010.3779 -0.01563,1.4063 c 3.026682,-0.2402 0.330075,3.6508 2.484376,4.5781 -2.186943,1.0938 0.491913,4.9069 -2.453126,4.5781 l -0.01563,1.4219 c 5.708274,0.559 1.032633,-5.1005 4.703126,-5.2656 l 0,-1.4063 c -3.613031,-0.027 1.118935,-5.707 -4.703126,-5.3125 z"
       id="path4351"
       inkscape:connector-curvature="0"
       sodipodi:nodetypes="cccccccc" />
    <path
       style="fill:#ffffff;fill-opacity:1;stroke:#ffffff;stroke-width:0.2;stroke-linecap:butt;stroke-linejoin:miter;stroke-miterlimit:4;stroke-opacity:1;stroke-dasharray:none"
       d="m 82.781251,1010.3606 0.01563,1.4063 c -3.026681,-0.2402 -0.330074,3.6507 -2.484375,4.5781 2.186942,1.0938 -0.491913,4.9069 2.453125,4.5781 l 0.01562,1.4219 c -5.708273,0.559 -1.032632,-5.1004 -4.703125,-5.2656 l 0,-1.4063 c 3.613031,-0.027 -1.118935,-5.7071 4.703125,-5.3125 z"
       id="path4351-9"
       inkscape:connector-curvature="0"
       sodipodi:nodetypes="cccccccc" />
    <rect
       style="fill:#d3d3d3;fill-opacity:1;stroke:none"
       id="rect3754-8"
       width="16"
       height="16"
       x="76"
       y="1032.3622" />
    <path
       style="fill:#ffffff;fill-opacity:1;stroke:#ffffff;stroke-width:0.2;stroke-linecap:butt;stroke-linejoin:miter;stroke-miterlimit:4;stroke-opacity:1;stroke-dasharray:none"
       d="m 85.10448,1034.3777 -0.01563,1.4063 c 3.026682,-0.2402 0.330074,3.6508 2.484376,4.5781 -2.186943,1.0938 0.491913,4.9069 -2.453126,4.5781 l -0.01563,1.4219 c 5.708274,0.559 1.032633,-5.1005 4.703126,-5.2656 l 0,-1.4063 c -3.613031,-0.027 1.118935,-5.707 -4.703126,-5.3125 z"
       id="path4351-1"
       inkscape:connector-curvature="0"
       sodipodi:nodetypes="cccccccc" />
    <path
       style="fill:#ffffff;fill-opacity:1;stroke:#ffffff;stroke-width:0.2;stroke-linecap:butt;stroke-linejoin:miter;stroke-miterlimit:4;stroke-opacity:1;stroke-dasharray:none"
       d="m 82.781257,1034.3604 0.01563,1.4063 c -3.026681,-0.2402 -0.330075,3.6507 -2.484375,4.5781 2.186942,1.0938 -0.491913,4.9069 2.453125,4.5781 l 0.01562,1.4219 c -5.708273,0.559 -1.032632,-5.1004 -4.703125,-5.2656 l 0,-1.4063 c 3.613031,-0.027 -1.118935,-5.7071 4.703125,-5.3125 z"
       id="path4351-9-5"
       inkscape:connector-curvature="0"
       sodipodi:nodetypes="cccccccc" />
    <rect
       style="fill:#97b0f8;fill-opacity:1;stroke:none"
       id="rect3754-25"
       width="16"
       height="16"
       x="100"
       y="1008.3622" />
    <path
       style="fill:#ffffff;fill-opacity:1;stroke:none"
       d="m 104.21875,1010.0341 0,12.7188 3.03125,0 0,-1.5313 -1.34375,0 0,-9.625 1.375,0 0,-1.5625 z"
       id="path2987"
       inkscape:connector-curvature="0" />
    <path
       style="fill:#ffffff;fill-opacity:1;stroke:none"
       d="m 111.71875,1010.0341 0,12.7188 -3.03125,0 0,-1.5313 1.34375,0 0,-9.625 -1.375,0 0,-1.5625 z"
       id="path2987-1"
       inkscape:connector-curvature="0" />
    <rect
       style="fill:#d3d3d3;fill-opacity:1;stroke:none"
       id="rect3754-65"
       width="16"
       height="16"
       x="100"
       y="1032.3622" />
    <path
       style="fill:#ffffff;fill-opacity:1;stroke:none"
       d="m 104.21875,1034.0341 0,12.7188 3.03125,0 0,-1.5313 -1.34375,0 0,-9.625 1.375,0 0,-1.5625 z"
       id="path2987-8"
       inkscape:connector-curvature="0" />
    <path
       style="fill:#ffffff;fill-opacity:1;stroke:none"
       d="m 111.71875,1034.0341 0,12.7188 -3.03125,0 0,-1.5313 1.34375,0 0,-9.625 -1.375,0 0,-1.5625 z"
       id="path2987-1-9"
       inkscape:connector-curvature="0" />
    <rect
       style="fill:#97b0f8;fill-opacity:1;stroke:none"
       id="rect3754-73"
       width="16"
       height="16"
       x="124"
       y="1008.3622" />
    <path
       style="fill:#ffffff;fill-opacity:1;stroke:none"
       d="m 126.2824,1021.9651 1.78957,0 1.14143,-2.8641 5.65364,0 1.14856,2.8641 1.76565,0 -4.78687,-11.1611 -1.91903,0 z"
       id="path3780"
       inkscape:connector-curvature="0"
       sodipodi:nodetypes="ccccccccc" />
    <path
       style="fill:#97b0f8;fill-opacity:1;stroke:none"
       d="m 129.72704,1017.841 4.60852,0.01 -2.30426,-5.5498 z"
       id="path3782"
       inkscape:connector-curvature="0" />
    <rect
       style="fill:#d3d3d3;fill-opacity:1;stroke:none"
       id="rect3754-92"
       width="16"
       height="16"
       x="124"
       y="1032.3622" />
    <path
       style="fill:#ffffff;fill-opacity:1;stroke:none"
       d="m 126.2824,1045.9651 1.78957,0 1.14143,-2.8641 5.65364,0 1.14856,2.8641 1.76565,0 -4.78687,-11.1611 -1.91902,0 z"
       id="path3780-9"
       inkscape:connector-curvature="0"
       sodipodi:nodetypes="ccccccccc" />
    <path
       style="fill:#d3d3d3;fill-opacity:1;stroke:none"
       d="m 129.72704,1041.841 4.60852,0.01 -2.30426,-5.5498 z"
       id="path3782-2"
       inkscape:connector-curvature="0" />
    <rect
       style="fill:#97b0f8;fill-opacity:1;stroke:none"
       id="rect3754-35"
       width="16"
       height="16"
       x="148"
       y="1008.3622" />
    <path
       style="fill:#ffffff;fill-opacity:1;stroke:none"
       d="m 156.47655,1010.2539 0,2.1797 0.46093,2.3984 1.82813,0 0.39844,-2.3984 0,-2.1797 z"
       id="path5008-2"
       inkscape:connector-curvature="0"
       sodipodi:nodetypes="ccccccc" />
    <path
       style="fill:#ffffff;fill-opacity:1;stroke:none"
       d="m 152.51561,1010.2528 0,2.1797 0.46094,2.3984 1.82812,0 0.39844,-2.3984 0,-2.1797 z"
       id="path5008-2-8"
       inkscape:connector-curvature="0"
       sodipodi:nodetypes="ccccccc" />
    <rect
       style="fill:#d3d3d3;fill-opacity:1;stroke:none"
       id="rect3754-47"
       width="16"
       height="16"
       x="148"
       y="1032.3622" />
    <path
       style="fill:#ffffff;fill-opacity:1;stroke:none"
       d="m 156.47656,1034.2539 0,2.1797 0.46093,2.3984 1.82813,0 0.39844,-2.3984 0,-2.1797 z"
       id="path5008-2-1"
       inkscape:connector-curvature="0"
       sodipodi:nodetypes="ccccccc" />
    <path
       style="fill:#ffffff;fill-opacity:1;stroke:none"
       d="m 152.51562,1034.2528 0,2.1797 0.46094,2.3984 1.82812,0 0.39844,-2.3984 0,-2.1797 z"
       id="path5008-2-8-8"
       inkscape:connector-curvature="0"
       sodipodi:nodetypes="ccccccc" />
    <path
       style="opacity:0.9;fill:#4d4d4d;fill-opacity:1;stroke:none"
       d="m 177.0157,1012.3622 -0.0157,8 7,-3.9844 z"
       id="path3055"
       inkscape:connector-curvature="0"
       sodipodi:nodetypes="cccc" />
    <path
       style="opacity:0.9;fill:#4d4d4d;fill-opacity:1;stroke:none"
       d="m 184,1037.3782 -8,-0.016 3.9844,7 z"
       id="path3055-0"
       inkscape:connector-curvature="0"
       sodipodi:nodetypes="cccc" />
    <path
       style="opacity:0.9;fill:#4d4d4d;fill-opacity:1;stroke:none"
       d="m 206.9844,1012.3622 0.0156,8 -7,-3.9844 z"
       id="path3055-3"
       inkscape:connector-curvature="0"
       sodipodi:nodetypes="cccc" />
    <path
       style="opacity:0.9;fill:#4d4d4d;fill-opacity:1;stroke:none"
       d="m 208,1043.3462 -8,0.016 3.9844,-7 z"
       id="path3055-0-7"
       inkscape:connector-curvature="0"
       sodipodi:nodetypes="cccc" />
    <rect
       style="fill:#d3d3d3;fill-opacity:1;stroke:none"
       id="rect5073"
       width="3"
       height="3"
       x="223.99998"
       y="1008.3622" />
    <rect
       style="fill:#d3d3d3;fill-opacity:1;stroke:none"
       id="rect5073-9"
       width="3"
       height="3"
       x="228.99998"
       y="1008.3622" />
    <rect
       style="fill:#d3d3d3;fill-opacity:1;stroke:none"
       id="rect5073-6"
       width="3"
       height="3"
       x="223.99998"
       y="1014.3622" />
    <rect
       style="fill:#d3d3d3;fill-opacity:1;stroke:none"
       id="rect5073-9-3"
       width="3"
       height="3"
       x="228.99998"
       y="1014.3622" />
    <rect
       style="fill:#d3d3d3;fill-opacity:1;stroke:none"
       id="rect5073-6-5"
       width="3"
       height="3"
       x="223.99998"
       y="1020.3622" />
    <rect
       style="fill:#d3d3d3;fill-opacity:1;stroke:none"
       id="rect5073-9-3-8"
       width="3"
       height="3"
       x="228.99998"
       y="1020.3622" />
    <path
       sodipodi:type="arc"
       style="fill:none;stroke:#4d4d4d;stroke-width:2.47487354;stroke-miterlimit:4;stroke-opacity:1;stroke-dasharray:none"
       id="path3131"
       sodipodi:cx="254.02811"
       sodipodi:cy="10.169789"
       sodipodi:rx="6.1871839"
       sodipodi:ry="6.1871839"
       d="m 260.21529,10.169789 c 0,3.417088 -2.7701,6.187184 -6.18718,6.187184 -3.41709,0 -6.18719,-2.770096 -6.18719,-6.187184 0,-3.417087 2.7701,-6.1871835 6.18719,-6.1871835 3.41708,0 6.18718,2.7700965 6.18718,6.1871835 z"
       transform="matrix(0.8081221,0,0,0.8081221,48.714273,1006.1438)" />
    <rect
       style="fill:#4d4d4d;fill-opacity:1;stroke:none"
       id="rect3901"
       width="7.0766954"
       height="4.3238611"
       x="-538.12122"
       y="909.72101"
       transform="matrix(0.72654224,-0.6871218,0.6979248,0.71617106,0,0)"
       ry="0" />
    <path
       sodipodi:type="arc"
       style="fill:none;stroke:#d3d3d3;stroke-width:2.47487354;stroke-miterlimit:4;stroke-opacity:1;stroke-dasharray:none"
       id="path3131-4"
       sodipodi:cx="254.02811"
       sodipodi:cy="10.169789"
       sodipodi:rx="6.1871839"
       sodipodi:ry="6.1871839"
       d="m 260.21529,10.169789 c 0,3.417088 -2.7701,6.187184 -6.18718,6.187184 -3.41709,0 -6.18719,-2.770096 -6.18719,-6.187184 0,-3.417087 2.7701,-6.1871835 6.18719,-6.1871835 3.41708,0 6.18718,2.7700965 6.18718,6.1871835 z"
       transform="matrix(0.8081221,0,0,0.8081221,48.489728,1030.1386)" />
    <rect
       style="fill:#d3d3d3;fill-opacity:1;stroke:none"
       id="rect3901-7"
       width="7.0766954"
       height="4.3238611"
       x="-555.03052"
       y="927.00201"
       transform="matrix(0.72654224,-0.6871218,0.6979248,0.71617106,0,0)"
       ry="0" />
    <path
       style="fill:#4d4d4d;fill-opacity:1;stroke:none"
       d="m 283,1012.3802 -14,-0.018 6.9727,8 z"
       id="path3055-0-6"
       inkscape:connector-curvature="0"
       sodipodi:nodetypes="cccc" />
    <path
       style="fill:#d3d3d3;fill-opacity:1;stroke:none"
       d="m 283,1036.3802 -14,-0.018 6.9727,8 z"
       id="path3055-0-6-7"
       inkscape:connector-curvature="0"
       sodipodi:nodetypes="cccc" />
    <path
       style="fill:#4d4d4d;fill-opacity:1;stroke:none"
       d="m 307,1020.3441 -14,0.018 6.9727,-8 z"
       id="path3055-0-6-3"
       inkscape:connector-curvature="0"
       sodipodi:nodetypes="cccc" />
    <path
       style="fill:#d3d3d3;fill-opacity:1;stroke:none"
       d="m 307,1044.3441 -14,0.018 6.9727,-8 z"
       id="path3055-0-6-7-7"
       inkscape:connector-curvature="0"
       sodipodi:nodetypes="cccc" />
    <path
       sodipodi:type="arc"
       style="opacity:0.8;fill:none;stroke:#4d4d4d;stroke-width:2.66157866;stroke-miterlimit:4;stroke-opacity:1;stroke-dasharray:none"
       id="path4138"
       sodipodi:cx="345"
       sodipodi:cy="14.625"
       sodipodi:rx="5.875"
       sodipodi:ry="5.625"
       d="m 340.84575,10.647524 c 2.29433,-2.1966988 6.01417,-2.1966988 8.3085,0 2.29433,2.196699 2.29433,5.758252 0,7.954952 C 348.05248,19.657368 346.55815,20.25 345,20.25"
       transform="matrix(1.0994438,0,0,1.1555556,-31.147369,999.5247)"
       sodipodi:start="3.9269908"
       sodipodi:end="7.8539816"
       sodipodi:open="true" />
    <path
       style="opacity:0.8;fill:#4d4d4d;fill-opacity:1;stroke:none"
       d="m 346.50256,1014.7688 -5.50291,-5.8066 -2.32475,7.7118 z"
       id="path3055-0-70-1-7-5"
       inkscape:connector-curvature="0"
       sodipodi:nodetypes="cccc" />
    <path
       sodipodi:type="arc"
       style="opacity:0.8;fill:none;stroke:#4d4d4d;stroke-width:2.66157866;stroke-miterlimit:4;stroke-opacity:1;stroke-dasharray:none"
       id="path4138-1"
       sodipodi:cx="345"
       sodipodi:cy="14.625"
       sodipodi:rx="5.875"
       sodipodi:ry="5.625"
       d="m 340.84575,10.647524 c 2.29433,-2.1966988 6.01417,-2.1966988 8.3085,0 2.29433,2.196699 2.29433,5.758252 0,7.954952 C 348.05248,19.657368 346.55815,20.25 345,20.25"
       transform="matrix(-1.0994438,0,0,1.1555556,751.26734,999.4622)"
       sodipodi:start="3.9269908"
       sodipodi:end="7.8539816"
       sodipodi:open="true" />
    <path
       style="opacity:0.8;fill:#4d4d4d;fill-opacity:1;stroke:none"
       d="m 373.61741,1014.7063 5.50291,-5.8066 2.32475,7.7118 z"
       id="path3055-0-70-1-7-5-8"
       inkscape:connector-curvature="0"
       sodipodi:nodetypes="cccc" />
    <path
       sodipodi:type="arc"
       style="opacity:0.4;fill:none;stroke:#4d4d4d;stroke-width:2.66157866;stroke-miterlimit:4;stroke-opacity:1;stroke-dasharray:none"
       id="path4138-7"
       sodipodi:cx="345"
       sodipodi:cy="14.625"
       sodipodi:rx="5.875"
       sodipodi:ry="5.625"
       d="m 340.84575,10.647524 c 2.29433,-2.1966988 6.01417,-2.1966988 8.3085,0 2.29433,2.196699 2.29433,5.758252 0,7.954952 C 348.05248,19.657368 346.55815,20.25 345,20.25"
       transform="matrix(1.0994438,0,0,1.1555556,-31.152274,1023.4622)"
       sodipodi:start="3.9269908"
       sodipodi:end="7.8539816"
       sodipodi:open="true" />
    <path
       style="opacity:0.4;fill:#4d4d4d;fill-opacity:1;stroke:none"
       d="m 346.49766,1038.7063 -5.50291,-5.8066 -2.32475,7.7118 z"
       id="path3055-0-70-1-7-5-85"
       inkscape:connector-curvature="0"
       sodipodi:nodetypes="cccc" />
    <path
       sodipodi:type="arc"
       style="opacity:0.4;fill:none;stroke:#4d4d4d;stroke-width:2.66157866;stroke-miterlimit:4;stroke-opacity:1;stroke-dasharray:none"
       id="path4138-1-0"
       sodipodi:cx="345"
       sodipodi:cy="14.625"
       sodipodi:rx="5.875"
       sodipodi:ry="5.625"
       d="m 340.84575,10.647524 c 2.29433,-2.1966988 6.01417,-2.1966988 8.3085,0 2.29433,2.196699 2.29433,5.758252 0,7.954952 C 348.05248,19.657368 346.55815,20.25 345,20.25"
       transform="matrix(-1.0994438,0,0,1.1555556,751.26244,1023.3997)"
       sodipodi:start="3.9269908"
       sodipodi:end="7.8539816"
       sodipodi:open="true" />
    <path
       style="opacity:0.4;fill:#4d4d4d;fill-opacity:1;stroke:none"
       d="m 373.61251,1038.6438 5.50291,-5.8066 2.32475,7.7118 z"
       id="path3055-0-70-1-7-5-8-4"
       inkscape:connector-curvature="0"
       sodipodi:nodetypes="cccc" />
    <path
       style="opacity:0.8;fill:none;stroke:#4d4d4d;stroke-width:1.99999988;stroke-linecap:square;stroke-linejoin:miter;stroke-miterlimit:4;stroke-opacity:1;stroke-dasharray:none"
       d="m 389,1014.3622 14.0009,0"
       id="path4946"
       inkscape:connector-curvature="0" />
    <path
       style="opacity:0.8;fill:none;stroke:#4d4d4d;stroke-width:1.99999988;stroke-linecap:square;stroke-linejoin:miter;stroke-miterlimit:4;stroke-opacity:1;stroke-dasharray:none"
       d="m 389,1022.3622 14.0009,0"
       id="path4946-9"
       inkscape:connector-curvature="0" />
    <path
       style="opacity:0.8;fill:none;stroke:#4d4d4d;stroke-width:1.99999988;stroke-linecap:square;stroke-linejoin:miter;stroke-miterlimit:4;stroke-opacity:1;stroke-dasharray:none"
       d="m 389,1018.3622 14.0009,0"
       id="path4946-9-8"
       inkscape:connector-curvature="0" />
    <path
       style="opacity:0.8;fill:none;stroke:#4d4d4d;stroke-width:1.99999988;stroke-linecap:square;stroke-linejoin:miter;stroke-miterlimit:4;stroke-opacity:1;stroke-dasharray:none"
       d="m 389,1010.3622 14.0009,0"
       id="path4946-0"
       inkscape:connector-curvature="0" />
    <path
       style="opacity:0.8;fill:none;stroke:#4d4d4d;stroke-width:2;stroke-linecap:square;stroke-linejoin:miter;stroke-miterlimit:4;stroke-opacity:1;stroke-dasharray:none"
       d="m 389.02095,1034.3622 9.99983,0"
       id="path4946-8-8"
       inkscape:connector-curvature="0" />
    <path
       style="opacity:0.8;fill:none;stroke:#4d4d4d;stroke-width:2;stroke-linecap:square;stroke-linejoin:miter;stroke-miterlimit:4;stroke-opacity:1;stroke-dasharray:none"
       d="m 395,1038.3622 7.99983,0"
       id="path4946-9-8-2-3"
       inkscape:connector-curvature="0" />
    <path
       style="opacity:0.8;fill:none;stroke:#4d4d4d;stroke-width:1.99999952;stroke-linecap:square;stroke-linejoin:miter;stroke-miterlimit:4;stroke-opacity:1;stroke-dasharray:none"
       d="m 394.98592,1042.3622 6.9998,0"
       id="path4946-9-8-2-3-7"
       inkscape:connector-curvature="0" />
    <path
       style="opacity:0.8;fill:none;stroke:#4d4d4d;stroke-width:2;stroke-linecap:square;stroke-linejoin:miter;stroke-miterlimit:4;stroke-opacity:1;stroke-dasharray:none"
       d="m 389,1046.3622 8,0"
       id="path4946-9-8-2-3-7-4"
       inkscape:connector-curvature="0" />
    <path
       style="opacity:0.8;fill:#4d4d4d;fill-opacity:1;stroke:none"
       d="m 327.9693,1010.3732 -8,-0.011 3.9844,5 z"
       id="path3055-0-77"
       inkscape:connector-curvature="0"
       sodipodi:nodetypes="cccc" />
    <path
       style="opacity:0.8;fill:#4d4d4d;fill-opacity:1;stroke:none"
       d="m 327.9993,1022.3512 -8,0.011 3.9844,-5 z"
       id="path3055-0-7-5"
       inkscape:connector-curvature="0"
       sodipodi:nodetypes="cccc" />
    <path
       style="opacity:0.8;fill:#4d4d4d;fill-opacity:1;stroke:none"
       d="m 328,1035.3508 -8,0.011 3.9844,-5 z"
       id="path3055-0-77-3"
       inkscape:connector-curvature="0"
       sodipodi:nodetypes="cccc" />
    <path
       style="opacity:0.8;fill:#4d4d4d;fill-opacity:1;stroke:none"
       d="m 328.03,1045.3732 -8,-0.011 3.9844,5 z"
       id="path3055-0-7-5-7"
       inkscape:connector-curvature="0"
       sodipodi:nodetypes="cccc" />
    <path
       style="opacity:0.8;fill:none;stroke:#4d4d4d;stroke-width:2;stroke-linecap:square;stroke-linejoin:miter;stroke-miterlimit:4;stroke-opacity:1;stroke-dasharray:none"
       d="m 317,1016.3622 14,-0.031"
       id="path5244-5-0-5"
       inkscape:connector-curvature="0"
       sodipodi:nodetypes="cc" />
    <path
       style="opacity:0.8;fill:none;stroke:#4d4d4d;stroke-width:2;stroke-linecap:square;stroke-linejoin:miter;stroke-miterlimit:4;stroke-opacity:1;stroke-dasharray:none"
       d="m 317,1040.3775 14,-0.031"
       id="path5244-5-0-5-8"
       inkscape:connector-curvature="0"
       sodipodi:nodetypes="cc" />
    <rect
       style="opacity:0.8;fill:#4d4d4d;fill-opacity:1;stroke:none"
       id="rect3832"
       width="3"
       height="2"
       x="322.5"
       y="1043.3622" />
    <rect
       style="opacity:0.8;fill:#4d4d4d;fill-opacity:1;stroke:none"
       id="rect3832-8"
       width="3"
       height="2"
       x="322.5"
       y="1035.3622" />
    <rect
       style="opacity:0.8;fill:#4d4d4d;fill-opacity:1;stroke:none"
       id="rect3832-8-2"
       width="3"
       height="2"
       x="322.5"
       y="1008.3622" />
    <rect
       style="opacity:0.8;fill:#4d4d4d;fill-opacity:1;stroke:none"
       id="rect3832-8-26"
       width="3"
       height="2"
       x="322.5"
       y="1022.3622" />
  </g>
</svg>
