<?xml version="1.0" encoding="UTF-8" standalone="no"?>
<!-- Created with Inkscape (http://www.inkscape.org/) -->

<svg
   xmlns:dc="http://purl.org/dc/elements/1.1/"
   xmlns:cc="http://creativecommons.org/ns#"
   xmlns:rdf="http://www.w3.org/1999/02/22-rdf-syntax-ns#"
   xmlns:svg="http://www.w3.org/2000/svg"
   xmlns="http://www.w3.org/2000/svg"
   xmlns:sodipodi="http://sodipodi.sourceforge.net/DTD/sodipodi-0.dtd"
   xmlns:inkscape="http://www.inkscape.org/namespaces/inkscape"
   width="216"
   height="144"
   id="svg2"
   version="1.1"
   inkscape:version="0.48.3.1 r9886"
   sodipodi:docname="jsoneditor-icons.svg"
   inkscape:export-filename="/home/jos/jsoneditoronline/img/svg/duplicate.png"
   inkscape:export-xdpi="90"
   inkscape:export-ydpi="90">
  <defs
     id="defs4" />
  <sodipodi:namedview
     id="base"
     pagecolor="#ffffff"
     bordercolor="#666666"
     borderopacity="1.0"
     inkscape:pageopacity="0.0"
     inkscape:pageshadow="2"
     inkscape:zoom="2"
     inkscape:cx="127.71513"
     inkscape:cy="-13.796001"
     inkscape:document-units="px"
     inkscape:current-layer="layer1"
     showgrid="false"
     inkscape:snap-grids="true"
     inkscape:window-width="1600"
     inkscape:window-height="850"
     inkscape:window-x="0"
     inkscape:window-y="0"
     inkscape:window-maximized="1"
     showguides="true"
     inkscape:guide-bbox="true" />
  <metadata
     id="metadata7">
    <rdf:RDF>
      <cc:Work
         rdf:about="">
        <dc:format>image/svg+xml</dc:format>
        <dc:type
           rdf:resource="http://purl.org/dc/dcmitype/StillImage" />
        <dc:title />
      </cc:Work>
    </rdf:RDF>
  </metadata>
  <g
     inkscape:label="Layer 1"
     inkscape:groupmode="layer"
     id="layer1"
     transform="translate(0,-908.3622)">
    <rect
       style="fill:#d3d3d3;fill-opacity:1;stroke:none"
       id="rect3754"
       width="16"
       height="16"
       x="4"
       y="936.36218" />
    <path
       style="fill:#ffffff;fill-opacity:1;stroke:none"
       d="m 11.03125,939.79974 0,3.375 -3.4375001,0 0,2.25 3.4062501,0 0,3.34368 2.21875,0 0,-3.31248 3.40625,0 0,-2.3125 -3.34375,0 0,-3.375 z"
       id="path4368"
       inkscape:connector-curvature="0" />
    <rect
       style="fill:#13ae00;fill-opacity:1;stroke:none"
       id="rect3754-7"
       width="16"
       height="16"
       x="4"
       y="912.36218" />
    <path
       style="fill:#ffffff;fill-opacity:1;stroke:none"
       d="m 11.03125,915.79974 0,3.375 -3.4375,0 0,2.25 3.40625,0 0,3.3438 2.21875,0 0,-3.3125 3.40625,0 0,-2.3125 -3.34375,0 0,-3.375 z"
       id="path4368-1"
       inkscape:connector-curvature="0" />
    <rect
       style="fill:#ff3300;fill-opacity:1;stroke:none"
       id="rect3754-9"
       width="16"
       height="16"
       x="28"
       y="912.36218" />
    <path
       style="fill:#ffffff;fill-opacity:1;stroke:none"
       d="m 38.506909,916.34628 -2.386486,2.3865 -2.430679,-2.4307 -1.59099,1.591 2.408582,2.4086 -2.364388,2.3644 1.568893,1.5689 2.342291,-2.3423 2.408583,2.4086 1.635184,-1.6352 -2.364388,-2.3644 2.386485,-2.3865 z"
       id="path4368-9"
       inkscape:connector-curvature="0" />
    <rect
       style="fill:#d3d3d3;fill-opacity:1;stroke:none"
       id="rect3754-6"
       width="16"
       height="16"
       x="28"
       y="936.36218" />
    <path
       style="fill:#ffffff;fill-opacity:1;stroke:none"
       d="m 38.506909,940.34628 -2.386486,2.3865 -2.430679,-2.4307 -1.59099,1.591 2.408582,2.4086 -2.364388,2.3644 1.568893,1.56888 2.342291,-2.34228 2.408583,2.40858 1.635184,-1.63518 -2.364388,-2.3644 2.386485,-2.3865 z"
       id="path4368-7"
       inkscape:connector-curvature="0" />
    <rect
       style="fill:#97b0f8;fill-opacity:1;stroke:none"
       id="rect3754-3"
       width="16"
       height="16"
       x="52"
       y="912.36218" />
    <rect
       style="fill:#ffffff;fill-opacity:1;stroke:#97b0f8;stroke-width:0.91546917;stroke-linejoin:miter;stroke-miterlimit:4;stroke-opacity:1;stroke-dasharray:none"
       id="rect3776-1"
       width="8.0845308"
       height="8.0845308"
       x="54.457733"
       y="914.81989" />
    <rect
       style="fill:#ffffff;fill-opacity:1;stroke:#97b0f8;stroke-width:0.90154964;stroke-linejoin:miter;stroke-miterlimit:4;stroke-opacity:1;stroke-dasharray:none"
       id="rect3776-1-6"
       width="8.0984497"
       height="8.0984507"
       x="57.459778"
       y="917.80408" />
    <rect
       style="fill:#d3d3d3;fill-opacity:1;stroke:none"
       id="rect3754-2"
       width="16"
       height="16"
       x="52"
       y="936.36218" />
    <rect
       style="fill:#ffffff;fill-opacity:1;stroke:#d3d3d3;stroke-width:0.91546917;stroke-linejoin:miter;stroke-miterlimit:4;stroke-opacity:1;stroke-dasharray:none"
       id="rect3776-1-0"
       width="8.0845308"
       height="8.0845308"
       x="54.457733"
       y="938.81982" />
    <rect
       style="fill:#ffffff;fill-opacity:1;stroke:#d3d3d3;stroke-width:0.90154964;stroke-linejoin:miter;stroke-miterlimit:4;stroke-opacity:1;stroke-dasharray:none"
       id="rect3776-1-6-4"
       width="8.0984497"
       height="8.0984507"
       x="57.459778"
       y="941.80396" />
    <rect
       style="fill:#97b0f8;fill-opacity:1;stroke:none"
       id="rect3754-4"
       width="16"
       height="16"
       x="76"
       y="912.36218" />
    <path
       style="fill:#ffffff;fill-opacity:1;stroke:#ffffff;stroke-width:0.2;stroke-linecap:butt;stroke-linejoin:miter;stroke-miterlimit:4;stroke-opacity:1;stroke-dasharray:none"
       d="m 85.10447,914.37798 -0.0156,1.4063 c 3.02669,-0.2402 0.33008,3.6508 2.48438,4.5781 -2.18694,1.0938 0.49191,4.9069 -2.45313,4.5781 l -0.0156,1.4219 c 5.70828,0.559 1.03264,-5.1005 4.70313,-5.2656 l 0,-1.4063 c -3.61303,-0.027 1.11893,-5.707 -4.70313,-5.3125 z"
       id="path4351"
       inkscape:connector-curvature="0"
       sodipodi:nodetypes="cccccccc" />
    <path
       style="fill:#ffffff;fill-opacity:1;stroke:#ffffff;stroke-width:0.2;stroke-linecap:butt;stroke-linejoin:miter;stroke-miterlimit:4;stroke-opacity:1;stroke-dasharray:none"
       d="m 82.78125,914.36068 0.0156,1.4063 c -3.02668,-0.2402 -0.33007,3.6507 -2.48437,4.5781 2.18694,1.0938 -0.49192,4.9069 2.45312,4.5781 l 0.0156,1.4219 c -5.70827,0.559 -1.03263,-5.1004 -4.70312,-5.2656 l 0,-1.4063 c 3.61303,-0.027 -1.11894,-5.7071 4.70312,-5.3125 z"
       id="path4351-9"
       inkscape:connector-curvature="0"
       sodipodi:nodetypes="cccccccc" />
    <rect
       style="fill:#d3d3d3;fill-opacity:1;stroke:none"
       id="rect3754-8"
       width="16"
       height="16"
       x="76"
       y="936.36218" />
    <path
       style="fill:#ffffff;fill-opacity:1;stroke:#ffffff;stroke-width:0.2;stroke-linecap:butt;stroke-linejoin:miter;stroke-miterlimit:4;stroke-opacity:1;stroke-dasharray:none"
       d="m 85.10448,938.37778 -0.0156,1.4063 c 3.02668,-0.2402 0.33007,3.6508 2.48438,4.5781 -2.18695,1.0938 0.49191,4.90688 -2.45313,4.57808 l -0.0156,1.4219 c 5.70827,0.559 1.03263,-5.10048 4.70313,-5.26558 l 0,-1.4063 c -3.61304,-0.027 1.11893,-5.707 -4.70313,-5.3125 z"
       id="path4351-1"
       inkscape:connector-curvature="0"
       sodipodi:nodetypes="cccccccc" />
    <path
       style="fill:#ffffff;fill-opacity:1;stroke:#ffffff;stroke-width:0.2;stroke-linecap:butt;stroke-linejoin:miter;stroke-miterlimit:4;stroke-opacity:1;stroke-dasharray:none"
       d="m 82.78126,938.36048 0.0156,1.4063 c -3.02668,-0.2402 -0.33008,3.6507 -2.48438,4.5781 2.18694,1.0938 -0.49191,4.90688 2.45313,4.57808 l 0.0156,1.4219 c -5.70828,0.559 -1.03264,-5.10038 -4.70313,-5.26558 l 0,-1.4063 c 3.61303,-0.027 -1.11893,-5.7071 4.70313,-5.3125 z"
       id="path4351-9-5"
       inkscape:connector-curvature="0"
       sodipodi:nodetypes="cccccccc" />
    <rect
       style="fill:#97b0f8;fill-opacity:1;stroke:none"
       id="rect3754-25"
       width="16"
       height="16"
       x="100"
       y="912.36218" />
    <path
       style="fill:#ffffff;fill-opacity:1;stroke:none"
       d="m 103.719,914.03418 0,12.7188 3.03125,0 0,-1.5313 -1.34375,0 0,-9.625 1.375,0 0,-1.5625 z"
       id="path2987"
       inkscape:connector-curvature="0" />
    <path
       style="fill:#ffffff;fill-opacity:1;stroke:none"
       d="m 112.2185,914.03444 0,12.7188 -3.03125,0 0,-1.5313 1.34375,0 0,-9.625 -1.375,0 0,-1.5625 z"
       id="path2987-1"
       inkscape:connector-curvature="0" />
    <rect
       style="fill:#d3d3d3;fill-opacity:1;stroke:none"
       id="rect3754-65"
       width="16"
       height="16"
       x="100"
       y="936.36218" />
    <path
       style="fill:#ffffff;fill-opacity:1;stroke:none"
       d="m 103.719,938.03418 0,12.71878 3.03125,0 0,-1.5313 -1.34375,0 0,-9.62498 1.375,0 0,-1.5625 z"
       id="path2987-8"
       inkscape:connector-curvature="0" />
    <path
       style="fill:#ffffff;fill-opacity:1;stroke:none"
       d="m 112.2185,938.03418 0,12.71878 -3.03125,0 0,-1.5313 1.34375,0 0,-9.62498 -1.375,0 0,-1.5625 z"
       id="path2987-1-9"
       inkscape:connector-curvature="0" />
    <rect
       style="fill:#97b0f8;fill-opacity:1;stroke:none"
       id="rect3754-73"
       width="16"
       height="16"
       x="124"
       y="912.36218" />
    <path
       style="fill:#ffffff;fill-opacity:1;stroke:none"
       d="m 126.2824,925.96518 1.78957,0 1.14143,-2.8641 5.65364,0 1.14856,2.8641 1.76565,0 -4.78687,-11.1611 -1.91903,0 z"
       id="path3780"
       inkscape:connector-curvature="0"
       sodipodi:nodetypes="ccccccccc" />
    <path
       style="fill:#97b0f8;fill-opacity:1;stroke:none"
       d="m 129.72704,921.84108 4.60852,0.01 -2.30426,-5.5498 z"
       id="path3782"
       inkscape:connector-curvature="0" />
    <rect
       style="fill:#d3d3d3;fill-opacity:1;stroke:none"
       id="rect3754-92"
       width="16"
       height="16"
       x="124"
       y="936.36218" />
    <path
       style="fill:#ffffff;fill-opacity:1;stroke:none"
       d="m 126.2824,949.96516 1.78957,0 1.14143,-2.86408 5.65364,0 1.14856,2.86408 1.76565,0 -4.78687,-11.16108 -1.91902,0 z"
       id="path3780-9"
       inkscape:connector-curvature="0"
       sodipodi:nodetypes="ccccccccc" />
    <path
       style="fill:#d3d3d3;fill-opacity:1;stroke:none"
       d="m 129.72704,945.84108 4.60852,0.01 -2.30426,-5.5498 z"
       id="path3782-2"
       inkscape:connector-curvature="0" />
    <rect
       style="fill:#97b0f8;fill-opacity:1;stroke:none"
       id="rect3754-35"
       width="16"
       height="16"
       x="148"
       y="912.36218" />
    <path
       style="fill:#ffffff;fill-opacity:1;stroke:none"
       d="m 156.47655,914.25398 0,2.1797 0.46093,2.3984 1.82813,0 0.39844,-2.3984 0,-2.1797 z"
       id="path5008-2"
       inkscape:connector-curvature="0"
       sodipodi:nodetypes="ccccccc" />
    <path
       style="fill:#ffffff;fill-opacity:1;stroke:none"
       d="m 152.51561,914.25288 0,2.1797 0.46094,2.3984 1.82812,0 0.39844,-2.3984 0,-2.1797 z"
       id="path5008-2-8"
       inkscape:connector-curvature="0"
       sodipodi:nodetypes="ccccccc" />
    <rect
       style="fill:#d3d3d3;fill-opacity:1;stroke:none"
       id="rect3754-47"
       width="16"
       height="16"
       x="148"
       y="936.36218" />
    <path
       style="fill:#ffffff;fill-opacity:1;stroke:none"
       d="m 156.47656,938.25398 0,2.1797 0.46093,2.3984 1.82813,0 0.39844,-2.3984 0,-2.1797 z"
       id="path5008-2-1"
       inkscape:connector-curvature="0"
       sodipodi:nodetypes="ccccccc" />
    <path
       style="fill:#ffffff;fill-opacity:1;stroke:none"
       d="m 152.51562,938.25288 0,2.1797 0.46094,2.3984 1.82812,0 0.39844,-2.3984 0,-2.1797 z"
       id="path5008-2-8-8"
       inkscape:connector-curvature="0"
       sodipodi:nodetypes="ccccccc" />
    <path
       style="opacity:0.9;fill:#4d4d4d;fill-opacity:1;stroke:none"
       d="m 9.0157,964.3622 -0.0157,8 7,-3.9844 z"
       id="path3055"
       inkscape:connector-curvature="0"
       sodipodi:nodetypes="cccc" />
    <path
       style="opacity:0.9;fill:#4d4d4d;fill-opacity:1;stroke:none"
       d="m 16,989.3782 -8,-0.016 3.9844,7 z"
       id="path3055-0"
       inkscape:connector-curvature="0"
       sodipodi:nodetypes="cccc" />
    <path
       style="opacity:0.9;fill:#4d4d4d;fill-opacity:1;stroke:none"
       d="m 38.9844,964.3622 0.0156,8 -7,-3.9844 z"
       id="path3055-3"
       inkscape:connector-curvature="0"
       sodipodi:nodetypes="cccc" />
    <path
       style="opacity:0.9;fill:#4d4d4d;fill-opacity:1;stroke:none"
       d="m 40,995.3462 -8,0.016 3.9844,-7 z"
       id="path3055-0-7"
       inkscape:connector-curvature="0"
       sodipodi:nodetypes="cccc" />
    <rect
       style="fill:#4d4d4d;fill-opacity:1;stroke:none"
       id="rect5073"
       width="3"
       height="3"
       x="80"
       y="960.36218" />
    <rect
       style="fill:#4d4d4d;fill-opacity:1;stroke:none"
       id="rect5073-9"
       width="3"
       height="3"
       x="85"
       y="960.36218" />
    <rect
       style="fill:#4d4d4d;fill-opacity:1;stroke:none"
       id="rect5073-6"
       width="3"
       height="3"
       x="80"
       y="966.36218" />
    <rect
       style="fill:#4d4d4d;fill-opacity:1;stroke:none"
       id="rect5073-9-3"
       width="3"
       height="3"
       x="85"
       y="966.36218" />
    <rect
       style="fill:#4d4d4d;fill-opacity:1;stroke:none"
       id="rect5073-6-5"
       width="3"
       height="3"
       x="80"
       y="972.36218" />
    <rect
       style="fill:#4d4d4d;fill-opacity:1;stroke:none"
       id="rect5073-9-3-8"
       width="3"
       height="3"
       x="85"
       y="972.36218" />
    <path
       sodipodi:type="arc"
       style="fill:none;stroke:#4d4d4d;stroke-width:2.47487354;stroke-miterlimit:4;stroke-opacity:1;stroke-dasharray:none"
       id="path3131"
       sodipodi:cx="254.02811"
       sodipodi:cy="10.169789"
       sodipodi:rx="6.1871839"
       sodipodi:ry="6.1871839"
       d="m 260.21529,10.169789 a 6.1871839,6.1871839 0 1 1 -12.37437,0 6.1871839,6.1871839 0 1 1 12.37437,0 z"
       transform="matrix(0.8081221,0,0,0.8081221,-95.285712,958.1438)" />
    <rect
       style="fill:#4d4d4d;fill-opacity:1;stroke:none"
       id="rect3901"
       width="7.0766954"
       height="4.3238611"
       x="-607.7572"
       y="775.88647"
       transform="matrix(0.72654224,-0.6871218,0.6979248,0.71617106,0,0)"
       ry="0" />
    <path
       sodipodi:type="arc"
       style="fill:none;stroke:#d3d3d3;stroke-width:2.47487354;stroke-miterlimit:4;stroke-opacity:1;stroke-dasharray:none"
       id="path3131-4"
       sodipodi:cx="254.02811"
       sodipodi:cy="10.169789"
       sodipodi:rx="6.1871839"
       sodipodi:ry="6.1871839"
       d="m 260.21529,10.169789 a 6.1871839,6.1871839 0 1 1 -12.37437,0 6.1871839,6.1871839 0 1 1 12.37437,0 z"
       transform="matrix(0.8081221,0,0,0.8081221,-95.510257,982.1386)" />
    <rect
       style="fill:#d3d3d3;fill-opacity:1;stroke:none"
       id="rect3901-7"
       width="7.0766954"
       height="4.3238611"
       x="-624.6665"
       y="793.16748"
       transform="matrix(0.72654224,-0.6871218,0.6979248,0.71617106,0,0)"
       ry="0" />
    <path
       style="fill:#4d4d4d;fill-opacity:1;stroke:none"
       d="m 139.00002,964.3802 -14,-0.018 6.9727,8 z"
       id="path3055-0-6"
       inkscape:connector-curvature="0"
       sodipodi:nodetypes="cccc" />
    <path
       style="fill:#d3d3d3;fill-opacity:1;stroke:none"
       d="m 139.00002,988.3802 -14,-0.018 6.9727,8 z"
       id="path3055-0-6-7"
       inkscape:connector-curvature="0"
       sodipodi:nodetypes="cccc" />
    <path
       style="fill:#4d4d4d;fill-opacity:1;stroke:none"
       d="m 163.00002,972.3441 -14,0.018 6.9727,-8 z"
       id="path3055-0-6-3"
       inkscape:connector-curvature="0"
       sodipodi:nodetypes="cccc" />
    <path
       style="fill:#d3d3d3;fill-opacity:1;stroke:none"
       d="m 163.00002,996.3441 -14,0.018 6.9727,-8 z"
       id="path3055-0-6-7-7"
       inkscape:connector-curvature="0"
       sodipodi:nodetypes="cccc" />
    <path
       sodipodi:type="arc"
       style="opacity:0.8;fill:none;stroke:#4d4d4d;stroke-width:2.66157866;stroke-miterlimit:4;stroke-opacity:1;stroke-dasharray:none"
       id="path4138"
       sodipodi:cx="345"
       sodipodi:cy="14.625"
       sodipodi:rx="5.875"
       sodipodi:ry="5.625"
       d="M 340.84575,10.647524 A 5.875,5.625 0 1 1 345,20.25"
       transform="matrix(1.0994451,0,0,1.1555556,-343.14777,999.5247)"
       sodipodi:start="3.9269908"
       sodipodi:end="7.8539816"
       sodipodi:open="true" />
    <path
       style="opacity:0.8;fill:#4d4d4d;fill-opacity:1;stroke:none"
       d="m 34.502594,1014.7688 -5.502916,-5.8066 -2.324753,7.7118 z"
       id="path3055-0-70-1-7-5"
       inkscape:connector-curvature="0"
       sodipodi:nodetypes="cccc" />
    <path
       sodipodi:type="arc"
       style="opacity:0.8;fill:none;stroke:#4d4d4d;stroke-width:2.66157866;stroke-miterlimit:4;stroke-opacity:1;stroke-dasharray:none"
       id="path4138-1"
       sodipodi:cx="345"
       sodipodi:cy="14.625"
       sodipodi:rx="5.875"
       sodipodi:ry="5.625"
       d="M 340.84575,10.647524 A 5.875,5.625 0 1 1 345,20.25"
       transform="matrix(-1.0994451,0,0,1.1555556,439.2678,999.4622)"
       sodipodi:start="3.9269908"
       sodipodi:end="7.8539816"
       sodipodi:open="true" />
    <path
       style="opacity:0.8;fill:#4d4d4d;fill-opacity:1;stroke:none"
       d="m 61.617436,1014.7063 5.502916,-5.8066 2.324753,7.7118 z"
       id="path3055-0-70-1-7-5-8"
       inkscape:connector-curvature="0"
       sodipodi:nodetypes="cccc" />
    <path
       style="opacity:0.8;fill:none;stroke:#4d4d4d;stroke-width:2.00000095;stroke-linecap:square;stroke-linejoin:miter;stroke-miterlimit:4;stroke-opacity:1;stroke-dasharray:none"
       d="m 77.000001,1014.3622 14.000917,0"
       id="path4946"
       inkscape:connector-curvature="0" />
    <path
       style="opacity:0.8;fill:none;stroke:#4d4d4d;stroke-width:2.00000095;stroke-linecap:square;stroke-linejoin:miter;stroke-miterlimit:4;stroke-opacity:1;stroke-dasharray:none"
       d="m 77.000001,1022.3622 14.000917,0"
       id="path4946-9"
       inkscape:connector-curvature="0" />
    <path
       style="opacity:0.8;fill:none;stroke:#4d4d4d;stroke-width:2.00000095;stroke-linecap:square;stroke-linejoin:miter;stroke-miterlimit:4;stroke-opacity:1;stroke-dasharray:none"
       d="m 77.000001,1018.3622 14.000917,0"
       id="path4946-9-8"
       inkscape:connector-curvature="0" />
    <path
       style="opacity:0.8;fill:none;stroke:#4d4d4d;stroke-width:2.00000095;stroke-linecap:square;stroke-linejoin:miter;stroke-miterlimit:4;stroke-opacity:1;stroke-dasharray:none"
       d="m 77.000001,1010.3622 14.000917,0"
       id="path4946-0"
       inkscape:connector-curvature="0" />
    <path
       style="opacity:0.8;fill:none;stroke:#4d4d4d;stroke-width:2.00000119;stroke-linecap:square;stroke-linejoin:miter;stroke-miterlimit:4;stroke-opacity:1;stroke-dasharray:none"
       d="m 77.020951,1034.3622 9.999842,0"
       id="path4946-8-8"
       inkscape:connector-curvature="0" />
    <path
       style="opacity:0.8;fill:none;stroke:#4d4d4d;stroke-width:2.00000119;stroke-linecap:square;stroke-linejoin:miter;stroke-miterlimit:4;stroke-opacity:1;stroke-dasharray:none"
       d="m 83.000008,1038.3622 7.99984,0"
       id="path4946-9-8-2-3"
       inkscape:connector-curvature="0" />
    <path
       style="opacity:0.8;fill:none;stroke:#4d4d4d;stroke-width:2.00000072;stroke-linecap:square;stroke-linejoin:miter;stroke-miterlimit:4;stroke-opacity:1;stroke-dasharray:none"
       d="m 82.985928,1042.3622 6.999808,0"
       id="path4946-9-8-2-3-7"
       inkscape:connector-curvature="0" />
    <path
       style="opacity:0.8;fill:none;stroke:#4d4d4d;stroke-width:2.00000119;stroke-linecap:square;stroke-linejoin:miter;stroke-miterlimit:4;stroke-opacity:1;stroke-dasharray:none"
       d="m 77.000001,1046.3622 8.00001,0"
       id="path4946-9-8-2-3-7-4"
       inkscape:connector-curvature="0" />
    <path
       style="opacity:0.8;fill:#4d4d4d;fill-opacity:1;stroke:none"
       d="m 15.969313,1010.3732 -8.0000091,-0.011 3.9844041,5 z"
       id="path3055-0-77"
       inkscape:connector-curvature="0"
       sodipodi:nodetypes="cccc" />
    <path
       style="opacity:0.8;fill:#4d4d4d;fill-opacity:1;stroke:none"
       d="m 15.999313,1022.3512 -8.0000091,0.011 3.9844051,-5 z"
       id="path3055-0-7-5"
       inkscape:connector-curvature="0"
       sodipodi:nodetypes="cccc" />
    <path
       style="opacity:0.8;fill:#4d4d4d;fill-opacity:1;stroke:none"
       d="m 16.000013,1035.3508 -8.0000091,0.011 3.9844051,-5 z"
       id="path3055-0-77-3"
       inkscape:connector-curvature="0"
       sodipodi:nodetypes="cccc" />
    <path
       style="opacity:0.8;fill:#4d4d4d;fill-opacity:1;stroke:none"
       d="m 16.030013,1045.3732 -8.000009,-0.011 3.984405,5 z"
       id="path3055-0-7-5-7"
       inkscape:connector-curvature="0"
       sodipodi:nodetypes="cccc" />
    <path
       style="opacity:0.8;fill:none;stroke:#4d4d4d;stroke-width:2.00000119;stroke-linecap:square;stroke-linejoin:miter;stroke-miterlimit:4;stroke-opacity:1;stroke-dasharray:none"
       d="m 5.0000005,1016.3622 14.0000165,-0.031"
       id="path5244-5-0-5"
       inkscape:connector-curvature="0"
       sodipodi:nodetypes="cc" />
    <path
       style="opacity:0.8;fill:none;stroke:#4d4d4d;stroke-width:2.00000119;stroke-linecap:square;stroke-linejoin:miter;stroke-miterlimit:4;stroke-opacity:1;stroke-dasharray:none"
       d="m 5.0000005,1040.3775 14.0000165,-0.031"
       id="path5244-5-0-5-8"
       inkscape:connector-curvature="0"
       sodipodi:nodetypes="cc" />
    <rect
       style="opacity:0.8;fill:#4d4d4d;fill-opacity:1;stroke:none"
       id="rect3832"
       width="3.0000036"
       height="1.9999999"
       x="10.499987"
       y="1043.3622" />
    <rect
       style="opacity:0.8;fill:#4d4d4d;fill-opacity:1;stroke:none"
       id="rect3832-8"
       width="3.0000036"
       height="1.9999999"
       x="10.499987"
       y="1035.3622" />
    <rect
       style="opacity:0.8;fill:#4d4d4d;fill-opacity:1;stroke:none"
       id="rect3832-8-2"
       width="3.0000036"
       height="1.9999999"
       x="10.499987"
       y="1008.3622" />
    <rect
       style="opacity:0.8;fill:#4d4d4d;fill-opacity:1;stroke:none"
       id="rect3832-8-26"
       width="3.0000036"
       height="1.9999999"
       x="10.499987"
       y="1022.3622" />
    <rect
       style="fill:#d3d3d3;fill-opacity:1;stroke:none"
       id="rect5073-4"
       width="3"
       height="3"
       x="80"
       y="984.36218" />
    <rect
       style="fill:#d3d3d3;fill-opacity:1;stroke:none"
       id="rect5073-9-9"
       width="3"
       height="3"
       x="85"
       y="984.36218" />
    <rect
       style="fill:#d3d3d3;fill-opacity:1;stroke:none"
       id="rect5073-6-2"
       width="3"
       height="3"
       x="80"
       y="990.36218" />
    <rect
       style="fill:#d3d3d3;fill-opacity:1;stroke:none"
       id="rect5073-9-3-6"
       width="3"
       height="3"
       x="85"
       y="990.36218" />
    <rect
       style="fill:#d3d3d3;fill-opacity:1;stroke:none"
       id="rect5073-6-5-7"
       width="3"
       height="3"
       x="80"
       y="996.36218" />
    <rect
       style="fill:#d3d3d3;fill-opacity:1;stroke:none"
       id="rect5073-9-3-8-4"
       width="3"
       height="3"
       x="85"
       y="996.36218" />
    <rect
       style="fill:#97b0f8;fill-opacity:1;stroke:none"
       id="rect3754-3-7-4-9"
       width="16"
       height="16"
       x="172"
       y="912.36218" />
    <rect
       style="fill:#ffffff;fill-opacity:1;stroke:none"
       id="rect4020-8-1"
       width="4"
       height="2"
       x="174"
       y="915.36218" />
    <rect
       style="fill:#ffffff;fill-opacity:1;stroke:none"
       id="rect4020-7-9-7"
       width="8"
       height="2"
       x="174"
       y="919.36218" />
    <rect
       style="fill:#ffffff;fill-opacity:1;stroke:none"
       id="rect4020-7-9-7-2"
       width="12"
       height="2"
       x="174"
       y="923.36218" />
    <rect
       style="fill:#97b0f8;fill-opacity:1;stroke:none"
       id="rect3754-3-7-4-9-5"
       width="16"
       height="16"
       x="196"
       y="-928.36218"
       transform="scale(1,-1)" />
    <path
       sodipodi:type="arc"
       style="opacity:0.4;fill:none;stroke:#4d4d4d;stroke-width:2.66157866;stroke-miterlimit:4;stroke-opacity:1;stroke-dasharray:none"
       id="path4138-12"
       sodipodi:cx="345"
       sodipodi:cy="14.625"
       sodipodi:rx="5.875"
       sodipodi:ry="5.625"
       d="M 340.84575,10.647524 A 5.875,5.625 0 1 1 345,20.25"
       transform="matrix(1.0994451,0,0,1.1555556,-341.82269,1024.4932)"
       sodipodi:start="3.9269908"
       sodipodi:end="7.8539816"
       sodipodi:open="true" />
    <path
       style="opacity:0.4;fill:#4d4d4d;fill-opacity:1;stroke:none"
       d="M 35.827669,1039.7373 30.324753,1033.9307 28,1041.6425 z"
       id="path3055-0-70-1-7-5-1"
       inkscape:connector-curvature="0"
       sodipodi:nodetypes="cccc" />
    <path
       sodipodi:type="arc"
       style="opacity:0.4;fill:none;stroke:#4d4d4d;stroke-width:2.66157866;stroke-miterlimit:4;stroke-opacity:1;stroke-dasharray:none"
       id="path4138-1-3"
       sodipodi:cx="345"
       sodipodi:cy="14.625"
       sodipodi:rx="5.875"
       sodipodi:ry="5.625"
       d="M 340.84575,10.647524 A 5.875,5.625 0 1 1 345,20.25"
       transform="matrix(-1.0994451,0,0,1.1555556,440.59288,1024.4307)"
       sodipodi:start="3.9269908"
       sodipodi:end="7.8539816"
       sodipodi:open="true" />
    <path
       style="opacity:0.4;fill:#4d4d4d;fill-opacity:1;stroke:none"
       d="m 62.942511,1039.6748 5.502916,-5.8066 2.324753,7.7118 z"
       id="path3055-0-70-1-7-5-8-1"
       inkscape:connector-curvature="0"
       sodipodi:nodetypes="cccc" />
    <rect
       style="fill:#ffffff;fill-opacity:1;stroke:none"
       id="rect4020-8-1-3"
       width="4"
       height="2"
       x="198"
       y="-925.36218"
       transform="scale(1,-1)" />
    <rect
       style="fill:#ffffff;fill-opacity:1;stroke:none"
       id="rect4020-7-9-7-3"
       width="8"
       height="2"
       x="198"
       y="-921.36218"
       transform="scale(1,-1)" />
    <rect
       style="fill:#ffffff;fill-opacity:1;stroke:none"
       id="rect4020-7-9-7-2-6"
       width="12"
       height="2"
       x="198"
       y="-917.36218"
       transform="scale(1,-1)" />
    <rect
       style="fill:#d3d3d3;fill-opacity:1;stroke:none"
       id="rect3754-3-7-4-9-4"
       width="16"
       height="16"
       x="172"
       y="936.36218" />
    <rect
       style="fill:#ffffff;fill-opacity:1;stroke:none"
       id="rect4020-8-1-5"
       width="4"
       height="2"
       x="174"
       y="939.36218" />
    <rect
       style="fill:#ffffff;fill-opacity:1;stroke:none"
       id="rect4020-7-9-7-4"
       width="8"
       height="2"
       x="174"
       y="943.36218" />
    <rect
       style="fill:#ffffff;fill-opacity:1;stroke:none"
       id="rect4020-7-9-7-2-62"
       width="12"
       height="2"
       x="174"
       y="947.36218" />
    <rect
       style="fill:#d3d3d3;fill-opacity:1;stroke:none"
       id="rect3754-3-7-4-9-5-8"
       width="16"
       height="16"
       x="196"
       y="-952.36218"
       transform="scale(1,-1)" />
    <rect
       style="fill:#ffffff;fill-opacity:1;stroke:none"
       id="rect4020-8-1-3-7"
       width="4"
       height="2"
       x="198"
       y="-949.36218"
       transform="scale(1,-1)" />
    <rect
       style="fill:#ffffff;fill-opacity:1;stroke:none"
       id="rect4020-7-9-7-3-0"
       width="8"
       height="2"
       x="198"
       y="-945.36218"
       transform="scale(1,-1)" />
    <rect
       style="fill:#ffffff;fill-opacity:1;stroke:none"
       id="rect4020-7-9-7-2-6-4"
       width="12"
       height="2"
       x="198"
       y="-941.36218"
       transform="scale(1,-1)" />
    <rect
       style="fill:#d3d3d3;fill-opacity:1;stroke:none"
       id="rect5073-4-4-9"
       width="12"
       height="13"
       x="54"
       y="985.36218" />
    <rect
       style="fill:#ffffff;fill-opacity:1;stroke:none"
       id="rect5073-6-2-7"
       width="8"
       height="2"
       x="56"
       y="987.36218" />
    <rect
       style="fill:#ffffff;fill-opacity:1;stroke:none"
       id="rect5073-6-2-7-7"
       width="8"
       height="6"
       x="56"
       y="990.36218" />
    <rect
       style="fill:#4d4d4d;fill-opacity:1;stroke:none"
       id="rect5073-4-4-9-0"
       width="12"
       height="13"
       x="54"
       y="961.36218" />
    <rect
       style="fill:#ffffff;fill-opacity:1;stroke:none"
       id="rect5073-6-2-7-9"
       width="8"
       height="2"
       x="56"
       y="963.36218" />
    <rect
       style="fill:#ffffff;fill-opacity:1;stroke:none"
       id="rect5073-6-2-7-7-1"
       width="8"
       height="6"
       x="56"
       y="966.36218" />
  </g>
</svg>
