<?xml version="1.0" encoding="UTF-8" standalone="no"?>
<!-- Created with Inkscape (http://www.inkscape.org/) -->

<svg
   xmlns:dc="http://purl.org/dc/elements/1.1/"
   xmlns:cc="http://creativecommons.org/ns#"
   xmlns:rdf="http://www.w3.org/1999/02/22-rdf-syntax-ns#"
   xmlns:svg="http://www.w3.org/2000/svg"
   xmlns="http://www.w3.org/2000/svg"
   xmlns:sodipodi="http://sodipodi.sourceforge.net/DTD/sodipodi-0.dtd"
   xmlns:inkscape="http://www.inkscape.org/namespaces/inkscape"
   width="216"
   height="168"
   id="svg2"
   version="1.1"
   inkscape:version="0.48.3.1 r9886"
   sodipodi:docname="jsoneditor-icons.svg"
   inkscape:export-filename="/home/jos/jsoneditoronline/img/svg/duplicate.png"
   inkscape:export-xdpi="90"
   inkscape:export-ydpi="90">
  <defs
     id="defs4" />
  <sodipodi:namedview
     id="base"
     pagecolor="#ffffff"
     bordercolor="#666666"
     borderopacity="1.0"
     inkscape:pageopacity="0.0"
     inkscape:pageshadow="2"
     inkscape:zoom="11.313708"
     inkscape:cx="61.013218"
     inkscape:cy="50.052206"
     inkscape:document-units="px"
     inkscape:current-layer="layer1"
     showgrid="false"
     inkscape:snap-grids="true"
     inkscape:window-width="1600"
     inkscape:window-height="850"
     inkscape:window-x="0"
     inkscape:window-y="0"
     inkscape:window-maximized="1"
     showguides="true"
     inkscape:guide-bbox="true" />
  <metadata
     id="metadata7">
    <rdf:RDF>
      <cc:Work
         rdf:about="">
        <dc:format>image/svg+xml</dc:format>
        <dc:type
           rdf:resource="http://purl.org/dc/dcmitype/StillImage" />
        <dc:title />
      </cc:Work>
    </rdf:RDF>
  </metadata>
  <g
     inkscape:label="Layer 1"
     inkscape:groupmode="layer"
     id="layer1"
     transform="translate(0,-884.3622)">
    <rect
       style="fill:#d3d3d3;fill-opacity:1;stroke:none"
       id="rect3754"
       width="16"
       height="16"
       x="4"
       y="912.36212" />
    <path
       style="fill:#ffffff;fill-opacity:1;stroke:none"
       d="m 11.03125,915.7997 0,3.375 -3.4375,0 0,2.25 3.40625,0 0,3.34368 2.21875,0 0,-3.31248 3.40625,0 0,-2.3125 -3.34375,0 0,-3.375 z"
       id="path4368"
       inkscape:connector-curvature="0" />
    <rect
       style="fill:#13ae00;fill-opacity:1;stroke:none"
       id="rect3754-7"
       width="16"
       height="16"
       x="4"
       y="888.36212" />
    <path
       style="fill:#ffffff;fill-opacity:1;stroke:none"
       d="m 11.03125,891.7997 0,3.375 -3.4375,0 0,2.25 3.40625,0 0,3.3438 2.21875,0 0,-3.3125 3.40625,0 0,-2.3125 -3.34375,0 0,-3.375 z"
       id="path4368-1"
       inkscape:connector-curvature="0" />
    <rect
       style="fill:#ff3300;fill-opacity:1;stroke:none"
       id="rect3754-9"
       width="16"
       height="16"
       x="28"
       y="888.36212" />
    <path
       style="fill:#ffffff;fill-opacity:1;stroke:none"
       d="m 38.506909,892.34624 -2.386486,2.3865 -2.430679,-2.4307 -1.59099,1.591 2.408582,2.4086 -2.364388,2.3644 1.568893,1.5689 2.342291,-2.3423 2.408583,2.4086 1.635184,-1.6352 -2.364388,-2.3644 2.386485,-2.3865 z"
       id="path4368-9"
       inkscape:connector-curvature="0" />
    <rect
       style="fill:#d3d3d3;fill-opacity:1;stroke:none"
       id="rect3754-6"
       width="16"
       height="16"
       x="28"
       y="912.36212" />
    <path
       style="fill:#ffffff;fill-opacity:1;stroke:none"
       d="m 38.506909,916.34624 -2.386486,2.3865 -2.430679,-2.4307 -1.59099,1.591 2.408582,2.4086 -2.364388,2.3644 1.568893,1.56888 2.342291,-2.34228 2.408583,2.40858 1.635184,-1.63518 -2.364388,-2.3644 2.386485,-2.3865 z"
       id="path4368-7"
       inkscape:connector-curvature="0" />
    <rect
       style="fill:#97b0f8;fill-opacity:1;stroke:none"
       id="rect3754-3"
       width="16"
       height="16"
       x="52"
       y="888.36212" />
    <rect
       style="fill:#ffffff;fill-opacity:1;stroke:#97b0f8;stroke-width:0.91546917;stroke-linejoin:miter;stroke-miterlimit:4;stroke-opacity:1;stroke-dasharray:none"
       id="rect3776-1"
       width="8.0845308"
       height="8.0845308"
       x="54.457733"
       y="890.81982" />
    <rect
       style="fill:#ffffff;fill-opacity:1;stroke:#97b0f8;stroke-width:0.90154964;stroke-linejoin:miter;stroke-miterlimit:4;stroke-opacity:1;stroke-dasharray:none"
       id="rect3776-1-6"
       width="8.0984497"
       height="8.0984507"
       x="57.459778"
       y="893.80402" />
    <rect
       style="fill:#d3d3d3;fill-opacity:1;stroke:none"
       id="rect3754-2"
       width="16"
       height="16"
       x="52"
       y="912.36212" />
    <rect
       style="fill:#ffffff;fill-opacity:1;stroke:#d3d3d3;stroke-width:0.91546917;stroke-linejoin:miter;stroke-miterlimit:4;stroke-opacity:1;stroke-dasharray:none"
       id="rect3776-1-0"
       width="8.0845308"
       height="8.0845308"
       x="54.457733"
       y="914.81976" />
    <rect
       style="fill:#ffffff;fill-opacity:1;stroke:#d3d3d3;stroke-width:0.90154964;stroke-linejoin:miter;stroke-miterlimit:4;stroke-opacity:1;stroke-dasharray:none"
       id="rect3776-1-6-4"
       width="8.0984497"
       height="8.0984507"
       x="57.459778"
       y="917.80389" />
    <rect
       style="fill:#97b0f8;fill-opacity:1;stroke:none"
       id="rect3754-4"
       width="16"
       height="16"
       x="76"
       y="888.36212" />
    <path
       style="fill:#ffffff;fill-opacity:1;stroke:#ffffff;stroke-width:0.2;stroke-linecap:butt;stroke-linejoin:miter;stroke-miterlimit:4;stroke-opacity:1;stroke-dasharray:none"
       d="m 85.10447,890.37794 -0.0156,1.4063 c 3.02669,-0.2402 0.33008,3.6508 2.48438,4.5781 -2.18694,1.0938 0.49191,4.9069 -2.45313,4.5781 l -0.0156,1.4219 c 5.70828,0.559 1.03264,-5.1005 4.70313,-5.2656 l 0,-1.4063 c -3.61303,-0.027 1.11893,-5.707 -4.70313,-5.3125 z"
       id="path4351"
       inkscape:connector-curvature="0"
       sodipodi:nodetypes="cccccccc" />
    <path
       style="fill:#ffffff;fill-opacity:1;stroke:#ffffff;stroke-width:0.2;stroke-linecap:butt;stroke-linejoin:miter;stroke-miterlimit:4;stroke-opacity:1;stroke-dasharray:none"
       d="m 82.78125,890.36064 0.0156,1.4063 c -3.02668,-0.2402 -0.33007,3.6507 -2.48437,4.5781 2.18694,1.0938 -0.49192,4.9069 2.45312,4.5781 l 0.0156,1.4219 c -5.70827,0.559 -1.03263,-5.1004 -4.70312,-5.2656 l 0,-1.4063 c 3.61303,-0.027 -1.11894,-5.7071 4.70312,-5.3125 z"
       id="path4351-9"
       inkscape:connector-curvature="0"
       sodipodi:nodetypes="cccccccc" />
    <rect
       style="fill:#d3d3d3;fill-opacity:1;stroke:none"
       id="rect3754-8"
       width="16"
       height="16"
       x="76"
       y="912.36212" />
    <path
       style="fill:#ffffff;fill-opacity:1;stroke:#ffffff;stroke-width:0.2;stroke-linecap:butt;stroke-linejoin:miter;stroke-miterlimit:4;stroke-opacity:1;stroke-dasharray:none"
       d="m 85.10448,914.37774 -0.0156,1.4063 c 3.02668,-0.2402 0.33007,3.6508 2.48438,4.5781 -2.18695,1.0938 0.49191,4.90688 -2.45313,4.57808 l -0.0156,1.4219 c 5.70827,0.559 1.03263,-5.10048 4.70313,-5.26558 l 0,-1.4063 c -3.61304,-0.027 1.11893,-5.707 -4.70313,-5.3125 z"
       id="path4351-1"
       inkscape:connector-curvature="0"
       sodipodi:nodetypes="cccccccc" />
    <path
       style="fill:#ffffff;fill-opacity:1;stroke:#ffffff;stroke-width:0.2;stroke-linecap:butt;stroke-linejoin:miter;stroke-miterlimit:4;stroke-opacity:1;stroke-dasharray:none"
       d="m 82.78126,914.36044 0.0156,1.4063 c -3.02668,-0.2402 -0.33008,3.6507 -2.48438,4.5781 2.18694,1.0938 -0.49191,4.90688 2.45313,4.57808 l 0.0156,1.4219 c -5.70828,0.559 -1.03264,-5.10038 -4.70313,-5.26558 l 0,-1.4063 c 3.61303,-0.027 -1.11893,-5.7071 4.70313,-5.3125 z"
       id="path4351-9-5"
       inkscape:connector-curvature="0"
       sodipodi:nodetypes="cccccccc" />
    <rect
       style="fill:#97b0f8;fill-opacity:1;stroke:none"
       id="rect3754-25"
       width="16"
       height="16"
       x="100"
       y="888.36212" />
    <path
       style="fill:#ffffff;fill-opacity:1;stroke:none"
       d="m 103.719,890.03414 0,12.7188 3.03125,0 0,-1.5313 -1.34375,0 0,-9.625 1.375,0 0,-1.5625 z"
       id="path2987"
       inkscape:connector-curvature="0" />
    <path
       style="fill:#ffffff;fill-opacity:1;stroke:none"
       d="m 112.2185,890.0344 0,12.7188 -3.03125,0 0,-1.5313 1.34375,0 0,-9.625 -1.375,0 0,-1.5625 z"
       id="path2987-1"
       inkscape:connector-curvature="0" />
    <rect
       style="fill:#d3d3d3;fill-opacity:1;stroke:none"
       id="rect3754-65"
       width="16"
       height="16"
       x="100"
       y="912.36212" />
    <path
       style="fill:#ffffff;fill-opacity:1;stroke:none"
       d="m 103.719,914.03414 0,12.71878 3.03125,0 0,-1.5313 -1.34375,0 0,-9.62498 1.375,0 0,-1.5625 z"
       id="path2987-8"
       inkscape:connector-curvature="0" />
    <path
       style="fill:#ffffff;fill-opacity:1;stroke:none"
       d="m 112.2185,914.03414 0,12.71878 -3.03125,0 0,-1.5313 1.34375,0 0,-9.62498 -1.375,0 0,-1.5625 z"
       id="path2987-1-9"
       inkscape:connector-curvature="0" />
    <rect
       style="fill:#97b0f8;fill-opacity:1;stroke:none"
       id="rect3754-73"
       width="16"
       height="16"
       x="124"
       y="888.36212" />
    <path
       style="fill:#ffffff;fill-opacity:1;stroke:none"
       d="m 126.2824,901.96514 1.78957,0 1.14143,-2.8641 5.65364,0 1.14856,2.8641 1.76565,0 -4.78687,-11.1611 -1.91903,0 z"
       id="path3780"
       inkscape:connector-curvature="0"
       sodipodi:nodetypes="ccccccccc" />
    <path
       style="fill:#97b0f8;fill-opacity:1;stroke:none"
       d="m 129.72704,897.84104 4.60852,0.01 -2.30426,-5.5498 z"
       id="path3782"
       inkscape:connector-curvature="0" />
    <rect
       style="fill:#d3d3d3;fill-opacity:1;stroke:none"
       id="rect3754-92"
       width="16"
       height="16"
       x="124"
       y="912.36212" />
    <path
       style="fill:#ffffff;fill-opacity:1;stroke:none"
       d="m 126.2824,925.96512 1.78957,0 1.14143,-2.86408 5.65364,0 1.14856,2.86408 1.76565,0 -4.78687,-11.16108 -1.91902,0 z"
       id="path3780-9"
       inkscape:connector-curvature="0"
       sodipodi:nodetypes="ccccccccc" />
    <path
       style="fill:#d3d3d3;fill-opacity:1;stroke:none"
       d="m 129.72704,921.84104 4.60852,0.01 -2.30426,-5.5498 z"
       id="path3782-2"
       inkscape:connector-curvature="0" />
    <rect
       style="fill:#97b0f8;fill-opacity:1;stroke:none"
       id="rect3754-35"
       width="16"
       height="16"
       x="148"
       y="888.36212" />
    <path
       style="fill:#ffffff;fill-opacity:1;stroke:none"
       d="m 156.47655,890.25394 0,2.1797 0.46093,2.3984 1.82813,0 0.39844,-2.3984 0,-2.1797 z"
       id="path5008-2"
       inkscape:connector-curvature="0"
       sodipodi:nodetypes="ccccccc" />
    <path
       style="fill:#ffffff;fill-opacity:1;stroke:none"
       d="m 152.51561,890.25284 0,2.1797 0.46094,2.3984 1.82812,0 0.39844,-2.3984 0,-2.1797 z"
       id="path5008-2-8"
       inkscape:connector-curvature="0"
       sodipodi:nodetypes="ccccccc" />
    <rect
       style="fill:#d3d3d3;fill-opacity:1;stroke:none"
       id="rect3754-47"
       width="16"
       height="16"
       x="148"
       y="912.36212" />
    <path
       style="fill:#ffffff;fill-opacity:1;stroke:none"
       d="m 156.47656,914.25394 0,2.1797 0.46093,2.3984 1.82813,0 0.39844,-2.3984 0,-2.1797 z"
       id="path5008-2-1"
       inkscape:connector-curvature="0"
       sodipodi:nodetypes="ccccccc" />
    <path
       style="fill:#ffffff;fill-opacity:1;stroke:none"
       d="m 152.51562,914.25284 0,2.1797 0.46094,2.3984 1.82812,0 0.39844,-2.3984 0,-2.1797 z"
       id="path5008-2-8-8"
       inkscape:connector-curvature="0"
       sodipodi:nodetypes="ccccccc" />
    <path
       style="opacity:0.9;fill:#4d4d4d;fill-opacity:1;stroke:none"
       d="m 9.0157,940.36216 -0.0157,8 7,-3.9844 z"
       id="path3055"
       inkscape:connector-curvature="0"
       sodipodi:nodetypes="cccc" />
    <path
       style="opacity:0.9;fill:#4d4d4d;fill-opacity:1;stroke:none"
       d="m 16,965.37816 -8,-0.016 3.9844,7 z"
       id="path3055-0"
       inkscape:connector-curvature="0"
       sodipodi:nodetypes="cccc" />
    <path
       style="opacity:0.9;fill:#4d4d4d;fill-opacity:1;stroke:none"
       d="m 38.9844,940.36216 0.0156,8 -7,-3.9844 z"
       id="path3055-3"
       inkscape:connector-curvature="0"
       sodipodi:nodetypes="cccc" />
    <path
       style="opacity:0.9;fill:#4d4d4d;fill-opacity:1;stroke:none"
       d="m 40,971.34616 -8,0.016 3.9844,-7 z"
       id="path3055-0-7"
       inkscape:connector-curvature="0"
       sodipodi:nodetypes="cccc" />
    <rect
       style="fill:#4d4d4d;fill-opacity:1;stroke:none"
       id="rect5073"
       width="3"
       height="3"
       x="80"
       y="936.36212" />
    <rect
       style="fill:#4d4d4d;fill-opacity:1;stroke:none"
       id="rect5073-9"
       width="3"
       height="3"
       x="85"
       y="936.36212" />
    <rect
       style="fill:#4d4d4d;fill-opacity:1;stroke:none"
       id="rect5073-6"
       width="3"
       height="3"
       x="80"
       y="942.36212" />
    <rect
       style="fill:#4d4d4d;fill-opacity:1;stroke:none"
       id="rect5073-9-3"
       width="3"
       height="3"
       x="85"
       y="942.36212" />
    <rect
       style="fill:#4d4d4d;fill-opacity:1;stroke:none"
       id="rect5073-6-5"
       width="3"
       height="3"
       x="80"
       y="948.36212" />
    <rect
       style="fill:#4d4d4d;fill-opacity:1;stroke:none"
       id="rect5073-9-3-8"
       width="3"
       height="3"
       x="85"
       y="948.36212" />
    <path
       sodipodi:type="arc"
       style="fill:none;stroke:#4d4d4d;stroke-width:2.47487354;stroke-miterlimit:4;stroke-opacity:1;stroke-dasharray:none"
       id="path3131"
       sodipodi:cx="254.02811"
       sodipodi:cy="10.169789"
       sodipodi:rx="6.1871839"
       sodipodi:ry="6.1871839"
       d="m 260.21529,10.169789 c 0,3.417088 -2.7701,6.187184 -6.18718,6.187184 -3.41709,0 -6.18719,-2.770096 -6.18719,-6.187184 0,-3.417087 2.7701,-6.1871835 6.18719,-6.1871835 3.41708,0 6.18718,2.7700965 6.18718,6.1871835 z"
       transform="matrix(0.8081221,0,0,0.8081221,-95.285712,934.14376)" />
    <rect
       style="fill:#4d4d4d;fill-opacity:1;stroke:none"
       id="rect3901"
       width="7.0766954"
       height="4.3238611"
       x="-591.00507"
       y="758.44751"
       transform="matrix(0.72654224,-0.6871218,0.6979248,0.71617106,0,0)"
       ry="0" />
    <path
       sodipodi:type="arc"
       style="fill:none;stroke:#d3d3d3;stroke-width:2.47487354;stroke-miterlimit:4;stroke-opacity:1;stroke-dasharray:none"
       id="path3131-4"
       sodipodi:cx="254.02811"
       sodipodi:cy="10.169789"
       sodipodi:rx="6.1871839"
       sodipodi:ry="6.1871839"
       d="m 260.21529,10.169789 c 0,3.417088 -2.7701,6.187184 -6.18718,6.187184 -3.41709,0 -6.18719,-2.770096 -6.18719,-6.187184 0,-3.417087 2.7701,-6.1871835 6.18719,-6.1871835 3.41708,0 6.18718,2.7700965 6.18718,6.1871835 z"
       transform="matrix(0.8081221,0,0,0.8081221,-95.510257,958.13856)" />
    <rect
       style="fill:#d3d3d3;fill-opacity:1;stroke:none"
       id="rect3901-7"
       width="7.0766954"
       height="4.3238611"
       x="-607.91437"
       y="775.72852"
       transform="matrix(0.72654224,-0.6871218,0.6979248,0.71617106,0,0)"
       ry="0" />
    <path
       style="fill:#4d4d4d;fill-opacity:1;stroke:none"
       d="m 139.00002,940.38016 -14,-0.018 6.9727,8 z"
       id="path3055-0-6"
       inkscape:connector-curvature="0"
       sodipodi:nodetypes="cccc" />
    <path
       style="fill:#d3d3d3;fill-opacity:1;stroke:none"
       d="m 139.00002,964.38016 -14,-0.018 6.9727,8 z"
       id="path3055-0-6-7"
       inkscape:connector-curvature="0"
       sodipodi:nodetypes="cccc" />
    <path
       style="fill:#4d4d4d;fill-opacity:1;stroke:none"
       d="m 163.00002,948.34406 -14,0.018 6.9727,-8 z"
       id="path3055-0-6-3"
       inkscape:connector-curvature="0"
       sodipodi:nodetypes="cccc" />
    <path
       style="fill:#d3d3d3;fill-opacity:1;stroke:none"
       d="m 163.00002,972.34406 -14,0.018 6.9727,-8 z"
       id="path3055-0-6-7-7"
       inkscape:connector-curvature="0"
       sodipodi:nodetypes="cccc" />
    <path
       sodipodi:type="arc"
       style="opacity:0.8;fill:none;stroke:#4d4d4d;stroke-width:2.66157866;stroke-miterlimit:4;stroke-opacity:1;stroke-dasharray:none"
       id="path4138"
       sodipodi:cx="345"
       sodipodi:cy="14.625"
       sodipodi:rx="5.875"
       sodipodi:ry="5.625"
       d="m 340.84575,10.647524 c 2.29433,-2.1966988 6.01417,-2.1966988 8.3085,0 2.29433,2.196699 2.29433,5.758252 0,7.954952 C 348.05248,19.657368 346.55815,20.25 345,20.25"
       transform="matrix(1.0994451,0,0,1.1555556,-343.14777,975.52466)"
       sodipodi:start="3.9269908"
       sodipodi:end="7.8539816"
       sodipodi:open="true" />
    <path
       style="opacity:0.8;fill:#4d4d4d;fill-opacity:1;stroke:none"
       d="m 34.502594,990.76876 -5.502916,-5.8066 -2.324753,7.7118 z"
       id="path3055-0-70-1-7-5"
       inkscape:connector-curvature="0"
       sodipodi:nodetypes="cccc" />
    <path
       sodipodi:type="arc"
       style="opacity:0.8;fill:none;stroke:#4d4d4d;stroke-width:2.66157866;stroke-miterlimit:4;stroke-opacity:1;stroke-dasharray:none"
       id="path4138-1"
       sodipodi:cx="345"
       sodipodi:cy="14.625"
       sodipodi:rx="5.875"
       sodipodi:ry="5.625"
       d="m 340.84575,10.647524 c 2.29433,-2.1966988 6.01417,-2.1966988 8.3085,0 2.29433,2.196699 2.29433,5.758252 0,7.954952 C 348.05248,19.657368 346.55815,20.25 345,20.25"
       transform="matrix(-1.0994451,0,0,1.1555556,439.2678,975.46216)"
       sodipodi:start="3.9269908"
       sodipodi:end="7.8539816"
       sodipodi:open="true" />
    <path
       style="opacity:0.8;fill:#4d4d4d;fill-opacity:1;stroke:none"
       d="m 61.61744,990.70626 5.50291,-5.8066 2.32476,7.7118 z"
       id="path3055-0-70-1-7-5-8"
       inkscape:connector-curvature="0"
       sodipodi:nodetypes="cccc" />
    <path
       style="opacity:0.8;fill:none;stroke:#4d4d4d;stroke-width:2.00000095;stroke-linecap:square;stroke-linejoin:miter;stroke-miterlimit:4;stroke-opacity:1;stroke-dasharray:none"
       d="m 77,990.36216 14.00092,0"
       id="path4946"
       inkscape:connector-curvature="0" />
    <path
       style="opacity:0.8;fill:none;stroke:#4d4d4d;stroke-width:2.00000095;stroke-linecap:square;stroke-linejoin:miter;stroke-miterlimit:4;stroke-opacity:1;stroke-dasharray:none"
       d="m 77,986.36216 14.00092,0"
       id="path4946-0"
       inkscape:connector-curvature="0" />
    <path
       style="opacity:0.8;fill:none;stroke:#4d4d4d;stroke-width:2.00000119;stroke-linecap:square;stroke-linejoin:miter;stroke-miterlimit:4;stroke-opacity:1;stroke-dasharray:none"
       d="m 77.02095,1010.3622 9.99984,0"
       id="path4946-8-8"
       inkscape:connector-curvature="0" />
    <path
       style="opacity:0.8;fill:none;stroke:#4d4d4d;stroke-width:2.00000119;stroke-linecap:square;stroke-linejoin:miter;stroke-miterlimit:4;stroke-opacity:1;stroke-dasharray:none"
       d="m 83.00001,1014.3622 7.99984,0"
       id="path4946-9-8-2-3"
       inkscape:connector-curvature="0" />
    <path
       style="opacity:0.8;fill:none;stroke:#4d4d4d;stroke-width:2.00000072;stroke-linecap:square;stroke-linejoin:miter;stroke-miterlimit:4;stroke-opacity:1;stroke-dasharray:none"
       d="m 82.98593,1018.3622 6.99981,0"
       id="path4946-9-8-2-3-7"
       inkscape:connector-curvature="0" />
    <path
       style="opacity:0.8;fill:none;stroke:#4d4d4d;stroke-width:2.00000119;stroke-linecap:square;stroke-linejoin:miter;stroke-miterlimit:4;stroke-opacity:1;stroke-dasharray:none"
       d="m 77,1022.3622 8.00001,0"
       id="path4946-9-8-2-3-7-4"
       inkscape:connector-curvature="0" />
    <path
       style="opacity:0.8;fill:#4d4d4d;fill-opacity:1;stroke:none"
       d="m 15.969313,986.37316 -8.000009,-0.011 3.984404,5 z"
       id="path3055-0-77"
       inkscape:connector-curvature="0"
       sodipodi:nodetypes="cccc" />
    <path
       style="opacity:0.8;fill:#4d4d4d;fill-opacity:1;stroke:none"
       d="m 15.999313,998.35116 -8.000009,0.011 3.984405,-5 z"
       id="path3055-0-7-5"
       inkscape:connector-curvature="0"
       sodipodi:nodetypes="cccc" />
    <path
       style="opacity:0.8;fill:#4d4d4d;fill-opacity:1;stroke:none"
       d="m 16.000013,1011.3508 -8.000009,0.011 3.984405,-5 z"
       id="path3055-0-77-3"
       inkscape:connector-curvature="0"
       sodipodi:nodetypes="cccc" />
    <path
       style="opacity:0.8;fill:#4d4d4d;fill-opacity:1;stroke:none"
       d="m 16.030013,1021.3732 -8.000009,-0.011 3.984405,5 z"
       id="path3055-0-7-5-7"
       inkscape:connector-curvature="0"
       sodipodi:nodetypes="cccc" />
    <path
       style="opacity:0.8;fill:none;stroke:#4d4d4d;stroke-width:2.00000119;stroke-linecap:square;stroke-linejoin:miter;stroke-miterlimit:4;stroke-opacity:1;stroke-dasharray:none"
       d="m 5.000001,992.36216 14.000016,-0.031"
       id="path5244-5-0-5"
       inkscape:connector-curvature="0"
       sodipodi:nodetypes="cc" />
    <path
       style="opacity:0.8;fill:none;stroke:#4d4d4d;stroke-width:2.00000119;stroke-linecap:square;stroke-linejoin:miter;stroke-miterlimit:4;stroke-opacity:1;stroke-dasharray:none"
       d="m 5.000001,1016.3775 14.000016,-0.031"
       id="path5244-5-0-5-8"
       inkscape:connector-curvature="0"
       sodipodi:nodetypes="cc" />
    <rect
       style="opacity:0.8;fill:#4d4d4d;fill-opacity:1;stroke:none"
       id="rect3832"
       width="3.0000036"
       height="1.9999999"
       x="10.499989"
       y="1019.3621" />
    <rect
       style="opacity:0.8;fill:#4d4d4d;fill-opacity:1;stroke:none"
       id="rect3832-8"
       width="3.0000036"
       height="1.9999999"
       x="10.499989"
       y="1011.3621" />
    <rect
       style="opacity:0.8;fill:#4d4d4d;fill-opacity:1;stroke:none"
       id="rect3832-8-2"
       width="3.0000036"
       height="1.9999999"
       x="10.499989"
       y="984.36212" />
    <rect
       style="opacity:0.8;fill:#4d4d4d;fill-opacity:1;stroke:none"
       id="rect3832-8-26"
       width="3.0000036"
       height="1.9999999"
       x="10.499989"
       y="998.36212" />
    <rect
       style="fill:#d3d3d3;fill-opacity:1;stroke:none"
       id="rect5073-4"
       width="3"
       height="3"
       x="80"
       y="960.36212" />
    <rect
       style="fill:#d3d3d3;fill-opacity:1;stroke:none"
       id="rect5073-9-9"
       width="3"
       height="3"
       x="85"
       y="960.36212" />
    <rect
       style="fill:#d3d3d3;fill-opacity:1;stroke:none"
       id="rect5073-6-2"
       width="3"
       height="3"
       x="80"
       y="966.36212" />
    <rect
       style="fill:#d3d3d3;fill-opacity:1;stroke:none"
       id="rect5073-9-3-6"
       width="3"
       height="3"
       x="85"
       y="966.36212" />
    <rect
       style="fill:#d3d3d3;fill-opacity:1;stroke:none"
       id="rect5073-6-5-7"
       width="3"
       height="3"
       x="80"
       y="972.36212" />
    <rect
       style="fill:#d3d3d3;fill-opacity:1;stroke:none"
       id="rect5073-9-3-8-4"
       width="3"
       height="3"
       x="85"
       y="972.36212" />
    <rect
       style="fill:#97b0f8;fill-opacity:1;stroke:none"
       id="rect3754-3-7-4-9"
       width="16"
       height="16"
       x="172"
       y="888.36212" />
    <rect
       style="fill:#ffffff;fill-opacity:1;stroke:none"
       id="rect4020-8-1"
       width="4"
       height="2"
       x="174"
       y="891.36212" />
    <rect
       style="fill:#ffffff;fill-opacity:1;stroke:none"
       id="rect4020-7-9-7"
       width="8"
       height="2"
       x="174"
       y="895.36212" />
    <rect
       style="fill:#ffffff;fill-opacity:1;stroke:none"
       id="rect4020-7-9-7-2"
       width="12"
       height="2"
       x="174"
       y="899.36212" />
    <rect
       style="fill:#97b0f8;fill-opacity:1;stroke:none"
       id="rect3754-3-7-4-9-5"
       width="16"
       height="16"
       x="196"
       y="-904.36212"
       transform="scale(1,-1)" />
    <path
       sodipodi:type="arc"
       style="opacity:0.4;fill:none;stroke:#4d4d4d;stroke-width:2.66157866;stroke-miterlimit:4;stroke-opacity:1;stroke-dasharray:none"
       id="path4138-12"
       sodipodi:cx="345"
       sodipodi:cy="14.625"
       sodipodi:rx="5.875"
       sodipodi:ry="5.625"
       d="M 340.84575,10.647524 A 5.875,5.625 0 1 1 345,20.25"
       transform="matrix(1.0994451,0,0,1.1555556,-343.14769,999.4622)"
       sodipodi:start="3.9269908"
       sodipodi:end="7.8539816"
       sodipodi:open="true" />
    <path
       style="opacity:0.4;fill:#4d4d4d;fill-opacity:1;stroke:none"
       d="m 34.502669,1014.7063 -5.502916,-5.8066 -2.324753,7.7118 z"
       id="path3055-0-70-1-7-5-1"
       inkscape:connector-curvature="0"
       sodipodi:nodetypes="cccc" />
    <path
       sodipodi:type="arc"
       style="opacity:0.4;fill:none;stroke:#4d4d4d;stroke-width:2.66157866;stroke-miterlimit:4;stroke-opacity:1;stroke-dasharray:none"
       id="path4138-1-3"
       sodipodi:cx="345"
       sodipodi:cy="14.625"
       sodipodi:rx="5.875"
       sodipodi:ry="5.625"
       d="M 340.84575,10.647524 A 5.875,5.625 0 1 1 345,20.25"
       transform="matrix(-1.0994451,0,0,1.1555556,439.2678,999.4622)"
       sodipodi:start="3.9269908"
       sodipodi:end="7.8539816"
       sodipodi:open="true" />
    <path
       style="opacity:0.4;fill:#4d4d4d;fill-opacity:1;stroke:none"
       d="m 61.61743,1014.7063 5.50292,-5.8066 2.32475,7.7118 z"
       id="path3055-0-70-1-7-5-8-1"
       inkscape:connector-curvature="0"
       sodipodi:nodetypes="cccc" />
    <rect
       style="fill:#ffffff;fill-opacity:1;stroke:none"
       id="rect4020-8-1-3"
       width="4"
       height="2"
       x="198"
       y="-901.36212"
       transform="scale(1,-1)" />
    <rect
       style="fill:#ffffff;fill-opacity:1;stroke:none"
       id="rect4020-7-9-7-3"
       width="8"
       height="2"
       x="198"
       y="-897.36212"
       transform="scale(1,-1)" />
    <rect
       style="fill:#ffffff;fill-opacity:1;stroke:none"
       id="rect4020-7-9-7-2-6"
       width="12"
       height="2"
       x="198"
       y="-893.36212"
       transform="scale(1,-1)" />
    <rect
       style="fill:#d3d3d3;fill-opacity:1;stroke:none"
       id="rect3754-3-7-4-9-4"
       width="16"
       height="16"
       x="172"
       y="912.36212" />
    <rect
       style="fill:#ffffff;fill-opacity:1;stroke:none"
       id="rect4020-8-1-5"
       width="4"
       height="2"
       x="174"
       y="915.36212" />
    <rect
       style="fill:#ffffff;fill-opacity:1;stroke:none"
       id="rect4020-7-9-7-4"
       width="8"
       height="2"
       x="174"
       y="919.36212" />
    <rect
       style="fill:#ffffff;fill-opacity:1;stroke:none"
       id="rect4020-7-9-7-2-62"
       width="12"
       height="2"
       x="174"
       y="923.36212" />
    <rect
       style="fill:#d3d3d3;fill-opacity:1;stroke:none"
       id="rect3754-3-7-4-9-5-8"
       width="16"
       height="16"
       x="196"
       y="-928.36212"
       transform="scale(1,-1)" />
    <rect
       style="fill:#ffffff;fill-opacity:1;stroke:none"
       id="rect4020-8-1-3-7"
       width="4"
       height="2"
       x="198"
       y="-925.36212"
       transform="scale(1,-1)" />
    <rect
       style="fill:#ffffff;fill-opacity:1;stroke:none"
       id="rect4020-7-9-7-3-0"
       width="8"
       height="2"
       x="198"
       y="-921.36212"
       transform="scale(1,-1)" />
    <rect
       style="fill:#ffffff;fill-opacity:1;stroke:none"
       id="rect4020-7-9-7-2-6-4"
       width="12"
       height="2"
       x="198"
       y="-917.36212"
       transform="scale(1,-1)" />
    <rect
       style="fill:#d3d3d3;fill-opacity:1;stroke:none"
       id="rect5073-4-4-9"
       width="12"
       height="13"
       x="54"
       y="961.36212" />
    <rect
       style="fill:#ffffff;fill-opacity:1;stroke:none"
       id="rect5073-6-2-7"
       width="8"
       height="2"
       x="56"
       y="963.36212" />
    <rect
       style="fill:#ffffff;fill-opacity:1;stroke:none"
       id="rect5073-6-2-7-7"
       width="8"
       height="6"
       x="56"
       y="966.36212" />
    <rect
       style="fill:#4d4d4d;fill-opacity:1;stroke:none"
       id="rect5073-4-4-9-0"
       width="12"
       height="13"
       x="54"
       y="937.36212" />
    <rect
       style="fill:#ffffff;fill-opacity:1;stroke:none"
       id="rect5073-6-2-7-9"
       width="8"
       height="2"
       x="56"
       y="939.36212" />
    <rect
       style="fill:#ffffff;fill-opacity:1;stroke:none"
       id="rect5073-6-2-7-7-1"
       width="8"
       height="6"
       x="56"
       y="942.36212" />
    <text
       xml:space="preserve"
       style="font-size:8px;font-style:normal;font-variant:normal;font-weight:bold;font-stretch:normal;line-height:125%;letter-spacing:0px;word-spacing:0px;opacity:0.4;fill:#4d4d4d;fill-opacity:1;stroke:none;font-family:DejaVu Sans Mono;-inkscape-font-specification:DejaVu Sans Mono Bold"
       x="51.834549"
       y="1041.2716"
       id="text3092-0"
       sodipodi:linespacing="125%"
       transform="scale(1.0000069,0.9999931)"><tspan
         sodipodi:role="line"
         id="tspan3094-3"
         x="51.834549"
         y="1041.2716"
         style="font-size:8px;font-style:normal;font-variant:normal;font-weight:bold;font-stretch:normal;fill:#4d4d4d;fill-opacity:1;font-family:Arial;-inkscape-font-specification:Arial Bold">VALUE</tspan></text>
    <text
       xml:space="preserve"
       style="font-size:8px;font-style:normal;font-variant:normal;font-weight:bold;font-stretch:normal;line-height:125%;letter-spacing:0px;word-spacing:0px;opacity:0.4;fill:#4d4d4d;fill-opacity:1;stroke:none;font-family:DejaVu Sans Mono;-inkscape-font-specification:DejaVu Sans Mono Bold"
       x="6.0006857"
       y="1041.3672"
       id="text3092"
       sodipodi:linespacing="125%"
       transform="scale(1.0000048,0.9999952)"><tspan
         sodipodi:role="line"
         id="tspan3094"
         x="6.0006857"
         y="1041.3672"
         style="font-size:8px;font-style:normal;font-variant:normal;font-weight:bold;font-stretch:normal;fill:#4d4d4d;fill-opacity:1;font-family:Arial;-inkscape-font-specification:Arial Bold">FIELD</tspan></text>
    <flowRoot
       xml:space="preserve"
       id="flowRoot3921"
       style="font-size:40px;font-style:normal;font-weight:normal;line-height:125%;letter-spacing:0px;word-spacing:0px;fill:#000000;fill-opacity:1;stroke:none;font-family:Sans"><flowRegion
         id="flowRegion3923"><rect
           id="rect3925"
           width="88.034798"
           height="61.164738"
           x="-7.4246211"
           y="147.45227" /></flowRegion><flowPara
         id="flowPara3927" /></flowRoot>    <flowRoot
       xml:space="preserve"
       id="flowRoot3929"
       style="font-size:40px;font-style:normal;font-weight:normal;line-height:125%;letter-spacing:0px;word-spacing:0px;fill:#000000;fill-opacity:1;stroke:none;font-family:Sans"><flowRegion
         id="flowRegion3931"><rect
           id="rect3933"
           width="120.20815"
           height="68.942909"
           x="-3.8890872"
           y="146.74516" /></flowRegion><flowPara
         id="flowPara3935" /></flowRoot>    <flowRoot
       xml:space="preserve"
       id="flowRoot3937"
       style="font-size:40px;font-style:normal;font-weight:normal;line-height:125%;letter-spacing:0px;word-spacing:0px;fill:#000000;fill-opacity:1;stroke:none;font-family:Sans"><flowRegion
         id="flowRegion3939"><rect
           id="rect3941"
           width="63.286057"
           height="64.700272"
           x="-5.6568542"
           y="143.56319" /></flowRegion><flowPara
         id="flowPara3943" /></flowRoot>    <path
       style="opacity:0.8;fill:none;stroke:#4d4d4d;stroke-width:2.00000072;stroke-linecap:square;stroke-linejoin:miter;stroke-miterlimit:4;stroke-opacity:1;stroke-dasharray:none"
       d="m 77,994.3622 6.99981,0"
       id="path4946-9-8-2-3-7-3"
       inkscape:connector-curvature="0" />
  </g>
</svg>
